<?xml version="1.0" standalone="no"?>
<!DOCTYPE svg PUBLIC "-//W3C//DTD SVG 1.0//EN"
"http://www.w3.org/TR/2001/REC-SVG-20010904/DTD/svg10.dtd">

<svg width="805px" height="820px" viewBox="0 0 805 820" version="1.0" xmlns="http://www.w3.org/2000/svg">

<g transform="translate(0,820)">
<g transform="scale(1,-1)">
<path d=" M 10.0 10.0 L 795.8 10.0 L 795.8 810.0 L 10.0 810.0 L 10.0 10.0"
 style="fill:none; stroke:#b3b3da; stroke-opacity:1.0; stroke-width:0.8; " />

<path d=" M 11.8 405.3 L 12.9 405.7 L 19.7 411.2 L 23.4 415.0 L 26.0 418.2 L 30.0 424.0 L 22.7 431.5 L 16.8 421.3 L 13.1 414.4 L 10.0 410.5 L 10.0 405.9 L 11.1 404.7 L 11.8 405.3 z M 16.6 436.1 L 14.2 438.2 L 10.2 434.8 L 10.0 434.7 L 10.0 430.0 L 16.6 436.1 z M 25.9 484.5 L 33.1 486.0 L 38.3 487.6 L 31.7 494.9 L 26.6 494.0 L 15.0 494.3 L 10.0 495.4 L 10.0 485.2 L 10.9 485.0 L 19.3 484.3 L 25.9 484.5 z M 16.4 599.7 L 23.6 601.5 L 30.8 604.4 L 38.0 608.0 L 49.8 612.3 L 44.5 613.0 L 40.7 613.4 L 38.9 612.5 L 30.7 609.7 L 19.6 606.4 L 11.0 606.4 L 10.0 606.3 L 10.0 599.7 L 16.4 599.7 z M 13.1 414.4 L 16.8 421.3 L 22.7 431.5 L 21.9 432.3 L 17.4 435.4 L 16.6 436.1 L 10.0 430.0 L 10.0 410.5 L 13.1 414.4 z M 13.5 659.7 L 25.7 662.7 L 31.8 663.7 L 38.6 664.5 L 43.4 665.6 L 48.3 667.0 L 58.7 672.6 L 60.1 674.3 L 41.5 677.7 L 40.9 677.0 L 39.5 675.9 L 35.5 673.0 L 31.1 671.6 L 25.0 670.7 L 18.9 669.0 L 13.1 667.0 L 10.0 666.1 L 10.0 658.6 L 13.5 659.7 z M 88.3 668.6 L 88.7 668.8 L 89.7 670.0 L 92.9 672.6 L 97.8 676.1 L 102.3 677.7 L 91.2 691.0 L 87.8 688.8 L 86.8 688.0 L 84.9 686.2 L 83.1 684.3 L 80.7 681.3 L 79.1 677.9 L 77.8 674.6 L 76.2 671.0 L 87.8 667.6 L 88.3 668.6 z M 16.9 633.6 L 22.4 635.5 L 34.7 638.7 L 40.3 640.4 L 46.2 641.7 L 51.1 642.4 L 66.1 647.1 L 75.6 650.4 L 80.4 651.8 L 81.9 652.2 L 86.5 652.7 L 91.6 653.6 L 101.5 658.1 L 108.1 660.9 L 110.7 661.4 L 99.1 665.0 L 93.7 663.2 L 89.5 661.6 L 85.1 660.4 L 73.6 659.3 L 62.8 656.6 L 56.3 654.1 L 50.9 651.8 L 49.4 651.2 L 42.8 648.9 L 35.7 647.0 L 23.3 643.0 L 18.1 641.6 L 10.0 639.7 L 10.0 630.4 L 16.9 633.6 z M 10.9 647.5 L 16.8 649.4 L 22.9 650.5 L 29.2 651.4 L 31.1 651.9 L 34.9 652.7 L 41.4 654.4 L 48.5 657.9 L 60.7 664.7 L 65.5 667.3 L 71.5 669.7 L 76.2 671.0 L 62.8 673.5 L 62.9 673.8 L 60.1 674.3 L 58.7 672.6 L 48.3 667.0 L 43.4 665.6 L 38.6 664.5 L 31.8 663.7 L 25.7 662.7 L 13.5 659.7 L 10.0 658.6 L 10.0 647.3 L 10.9 647.5 z M 795.8 24.3 L 795.5 24.7 L 792.9 27.8 L 790.2 32.6 L 787.1 42.8 L 785.8 54.8 L 784.0 61.0 L 783.1 66.7 L 780.9 72.5 L 779.6 79.1 L 773.4 91.0 L 770.7 99.0 L 767.2 104.8 L 762.3 111.0 L 754.4 118.0 L 743.9 121.8 L 733.9 130.7 L 720.5 138.6 L 726.1 134.8 L 733.6 126.4 L 742.0 114.5 L 753.5 101.2 L 758.4 95.9 L 764.1 88.8 L 765.4 78.2 L 762.8 70.3 L 761.4 64.9 L 761.9 58.3 L 764.1 52.6 L 766.8 46.4 L 771.6 40.6 L 778.3 33.5 L 782.7 26.5 L 783.1 19.4 L 777.4 11.0 L 777.2 10.0 L 795.8 10.0 L 795.8 24.3 z M 77.8 674.6 L 79.1 677.9 L 80.7 681.3 L 83.1 684.3 L 84.9 686.2 L 86.8 688.0 L 87.8 688.8 L 91.2 691.0 L 80.9 701.8 L 80.8 703.1 L 80.8 707.9 L 80.9 714.5 L 81.4 717.2 L 80.5 726.2 L 82.3 732.0 L 84.1 739.3 L 85.2 745.1 L 88.2 755.8 L 90.7 760.7 L 96.5 768.6 L 97.1 772.0 L 96.7 779.2 L 90.0 785.7 L 85.7 790.1 L 86.0 794.9 L 85.8 799.1 L 83.5 802.9 L 82.4 808.0 L 81.8 810.0 L 68.7 810.0 L 69.7 807.6 L 70.8 801.4 L 74.5 785.6 L 74.0 780.8 L 71.6 774.7 L 68.9 767.3 L 68.5 763.8 L 66.2 760.2 L 66.1 756.8 L 65.2 750.6 L 64.3 747.8 L 63.6 742.6 L 64.6 737.7 L 65.9 734.4 L 67.1 730.5 L 67.3 725.3 L 66.1 720.5 L 72.4 713.2 L 72.0 706.6 L 70.1 702.8 L 69.4 699.5 L 68.4 697.8 L 65.7 695.6 L 67.1 693.5 L 68.7 691.6 L 68.3 689.9 L 67.5 687.0 L 66.5 684.4 L 64.9 680.8 L 63.9 677.6 L 63.3 674.6 L 62.9 673.8 L 62.8 673.5 L 76.2 671.0 L 77.8 674.6 z M 105.2 680.7 L 109.5 688.2 L 113.7 695.9 L 117.6 704.5 L 121.3 716.5 L 123.4 726.2 L 125.8 736.2 L 128.9 744.2 L 132.1 749.9 L 136.2 756.2 L 139.1 762.4 L 140.6 768.1 L 140.2 774.4 L 139.5 779.3 L 137.4 787.3 L 135.0 794.6 L 133.6 801.9 L 132.4 810.0 L 122.4 810.0 L 121.4 800.5 L 120.3 791.9 L 119.4 775.9 L 118.9 772.6 L 113.7 759.7 L 112.3 752.4 L 111.9 745.8 L 111.2 738.5 L 110.0 730.7 L 108.6 722.8 L 106.9 715.0 L 104.5 707.4 L 102.8 704.0 L 100.5 701.0 L 97.3 697.8 L 93.2 692.8 L 91.2 691.0 L 102.3 677.7 L 105.2 680.7 z M 18.1 627.3 L 23.5 629.2 L 32.3 630.3 L 41.1 632.8 L 46.5 634.5 L 51.1 636.7 L 56.4 638.1 L 68.7 638.8 L 75.7 641.1 L 81.4 641.5 L 93.9 644.6 L 98.8 646.1 L 103.9 647.9 L 113.4 651.7 L 113.4 651.7 L 115.0 652.4 L 117.4 653.6 L 123.3 656.4 L 124.9 657.7 L 127.2 659.4 L 134.3 664.2 L 139.0 668.9 L 143.5 675.5 L 147.9 686.8 L 149.6 693.0 L 152.5 701.2 L 156.2 705.8 L 161.0 709.7 L 161.8 713.4 L 160.7 717.9 L 160.7 722.6 L 162.3 726.5 L 164.4 731.0 L 165.7 737.6 L 167.2 743.9 L 169.6 751.1 L 174.2 763.1 L 177.9 767.6 L 181.6 770.8 L 182.9 773.0 L 182.8 777.4 L 181.4 779.6 L 179.3 781.0 L 171.7 783.4 L 169.1 784.7 L 167.9 787.2 L 167.5 789.2 L 167.4 792.5 L 169.4 797.2 L 174.0 800.0 L 182.1 803.2 L 185.5 804.8 L 187.7 806.7 L 189.2 808.5 L 189.8 810.0 L 164.8 810.0 L 165.1 809.0 L 164.2 805.5 L 162.4 801.4 L 159.7 799.7 L 157.1 800.2 L 153.1 800.6 L 151.3 799.4 L 151.3 797.1 L 151.6 794.6 L 152.4 790.3 L 153.0 786.0 L 153.0 780.4 L 151.7 772.1 L 151.7 768.7 L 151.0 766.0 L 149.5 761.2 L 147.6 757.0 L 144.6 752.9 L 140.8 748.8 L 136.9 736.6 L 139.6 727.8 L 140.3 721.7 L 138.6 716.0 L 135.3 709.2 L 133.8 702.9 L 133.3 697.3 L 133.5 693.0 L 133.4 687.2 L 130.4 680.1 L 127.9 675.3 L 125.2 672.1 L 122.0 670.2 L 119.1 667.7 L 115.7 665.0 L 102.3 677.7 L 97.8 676.1 L 92.9 672.6 L 89.7 670.0 L 88.7 668.8 L 88.3 668.6 L 87.8 667.6 L 76.2 671.0 L 71.5 669.7 L 65.5 667.3 L 60.7 664.7 L 48.5 657.9 L 41.4 654.4 L 34.9 652.7 L 31.1 651.9 L 29.2 651.4 L 22.9 650.5 L 16.8 649.4 L 10.9 647.5 L 10.0 647.3 L 10.0 639.7 L 18.1 641.6 L 23.3 643.0 L 35.7 647.0 L 42.8 648.9 L 49.4 651.2 L 50.9 651.8 L 56.3 654.1 L 62.8 656.6 L 73.6 659.3 L 85.1 660.4 L 89.5 661.6 L 93.7 663.2 L 99.1 665.0 L 110.7 661.4 L 108.1 660.9 L 101.5 658.1 L 91.6 653.6 L 86.5 652.7 L 81.9 652.2 L 80.4 651.8 L 75.6 650.4 L 66.1 647.1 L 51.1 642.4 L 46.2 641.7 L 40.3 640.4 L 34.7 638.7 L 22.4 635.5 L 16.9 633.6 L 10.0 630.4 L 10.0 624.9 L 18.1 627.3 z M 264.0 810.0 L 250.7 810.0 L 252.7 809.5 L 259.5 809.3 L 264.0 810.0 z M 288.0 802.6 L 291.2 804.6 L 291.8 807.8 L 291.3 810.0 L 266.0 810.0 L 271.1 805.1 L 274.1 805.3 L 277.6 804.6 L 283.1 802.5 L 288.0 802.6 z M 80.6 387.1 L 83.2 389.3 L 85.6 391.8 L 82.2 402.9 L 78.5 410.9 L 86.3 412.9 L 98.5 416.4 L 102.4 416.8 L 107.7 417.0 L 113.6 417.7 L 125.9 421.9 L 130.6 424.7 L 133.5 425.9 L 135.2 426.3 L 139.5 427.9 L 137.2 431.2 L 142.5 432.5 L 150.4 434.8 L 163.6 436.1 L 169.2 437.3 L 173.7 438.1 L 179.3 439.4 L 194.3 440.6 L 204.4 442.2 L 215.6 442.9 L 231.4 443.4 L 243.5 444.7 L 245.3 445.7 L 247.6 447.2 L 250.6 448.3 L 252.9 448.3 L 255.5 447.5 L 260.3 445.7 L 265.6 444.4 L 270.4 444.2 L 275.5 444.2 L 283.6 443.4 L 296.1 442.7 L 306.5 439.6 L 313.3 438.4 L 322.0 437.4 L 319.8 440.5 L 329.2 438.0 L 338.4 437.4 L 347.5 438.0 L 355.7 438.8 L 363.3 440.4 L 376.0 442.4 L 381.6 443.4 L 387.3 445.3 L 391.2 447.0 L 396.3 451.3 L 402.1 456.8 L 407.9 460.2 L 414.8 463.8 L 424.0 468.2 L 431.2 471.3 L 439.7 475.2 L 448.0 480.9 L 467.3 496.6 L 472.8 501.6 L 479.5 508.5 L 485.7 513.9 L 492.0 522.0 L 495.7 527.9 L 499.4 533.8 L 505.4 542.9 L 510.2 550.7 L 513.4 557.2 L 515.9 563.3 L 518.7 568.6 L 522.8 571.8 L 525.5 573.3 L 527.1 577.7 L 527.6 583.0 L 529.8 592.9 L 530.3 596.7 L 530.6 601.1 L 530.7 608.8 L 532.6 614.4 L 535.8 617.8 L 538.3 619.9 L 541.6 621.8 L 545.5 625.2 L 546.2 626.3 L 546.6 627.5 L 538.4 633.3 L 538.4 637.2 L 538.8 643.4 L 539.9 647.3 L 542.4 650.3 L 543.0 650.8 L 544.8 652.2 L 546.0 655.2 L 545.2 658.2 L 546.4 662.6 L 557.5 674.3 L 563.0 677.8 L 570.4 680.1 L 583.3 684.6 L 590.7 686.7 L 598.6 689.1 L 614.9 692.9 L 628.7 694.6 L 635.6 697.9 L 640.4 700.8 L 645.3 704.7 L 649.9 708.9 L 654.5 714.4 L 656.7 719.3 L 657.8 724.5 L 658.1 728.1 L 658.0 729.9 L 656.9 732.6 L 653.3 737.9 L 652.3 749.3 L 653.3 758.7 L 653.8 765.5 L 652.8 772.3 L 650.4 777.7 L 650.1 778.3 L 649.7 778.7 L 648.5 779.5 L 646.3 780.5 L 642.0 781.8 L 637.8 782.6 L 630.5 784.5 L 624.4 785.6 L 617.2 787.9 L 612.0 791.8 L 609.8 795.7 L 610.1 802.4 L 611.7 804.9 L 616.4 807.7 L 621.8 808.7 L 626.7 809.0 L 633.4 808.9 L 638.8 809.3 L 642.5 810.0 L 561.2 810.0 L 563.2 808.0 L 565.6 806.5 L 570.2 804.5 L 575.1 802.8 L 580.8 801.0 L 594.9 795.8 L 600.9 792.7 L 604.7 789.3 L 608.1 786.5 L 612.4 782.3 L 617.0 778.5 L 625.9 769.9 L 629.7 765.8 L 633.3 761.3 L 640.2 749.3 L 642.9 741.0 L 642.3 732.6 L 640.8 728.4 L 636.1 725.3 L 633.0 722.7 L 629.7 718.4 L 627.3 712.8 L 625.3 709.2 L 621.9 705.8 L 612.9 701.0 L 605.7 697.2 L 598.5 695.6 L 592.7 695.5 L 585.6 694.3 L 580.2 690.7 L 573.6 687.1 L 562.2 683.3 L 555.7 680.5 L 550.7 678.2 L 546.2 675.5 L 543.0 671.8 L 540.9 667.8 L 538.8 663.2 L 534.2 654.4 L 532.5 650.8 L 532.3 650.4 L 531.1 646.1 L 530.0 638.9 L 529.5 636.8 L 525.8 631.7 L 522.8 628.9 L 514.3 623.4 L 510.1 618.7 L 506.8 613.4 L 504.3 607.6 L 502.4 602.4 L 500.1 596.8 L 496.0 591.0 L 494.6 587.4 L 491.9 581.9 L 488.9 577.4 L 484.3 571.4 L 481.1 566.6 L 478.0 561.1 L 475.0 554.0 L 469.8 542.3 L 464.4 535.0 L 460.6 532.0 L 450.1 524.9 L 441.5 519.9 L 434.3 514.8 L 428.6 511.9 L 422.2 507.6 L 414.8 502.1 L 408.9 498.8 L 401.4 496.1 L 385.1 494.9 L 379.7 493.8 L 376.1 491.9 L 373.1 489.6 L 372.0 487.1 L 371.9 484.7 L 371.9 479.3 L 370.9 475.8 L 367.2 471.2 L 360.0 467.3 L 353.4 466.1 L 345.3 465.2 L 332.6 468.1 L 326.6 468.6 L 320.8 468.7 L 317.7 467.8 L 314.1 466.0 L 308.0 463.3 L 304.4 462.3 L 300.2 468.5 L 299.6 468.1 L 296.7 467.2 L 283.9 467.3 L 278.1 467.0 L 266.3 465.4 L 254.8 465.6 L 245.6 466.5 L 234.2 466.7 L 225.9 466.6 L 230.4 461.8 L 234.0 457.8 L 232.5 457.2 L 227.3 457.9 L 215.7 458.2 L 210.4 458.2 L 189.3 457.8 L 180.0 457.9 L 172.0 458.6 L 167.1 458.3 L 161.0 457.7 L 157.6 457.2 L 156.8 457.1 L 145.8 453.5 L 141.3 451.2 L 137.3 449.5 L 131.7 449.2 L 121.4 450.3 L 118.4 450.3 L 112.0 450.0 L 106.3 449.6 L 99.8 448.1 L 93.9 446.2 L 85.6 442.7 L 79.5 439.1 L 74.8 435.8 L 69.6 432.1 L 71.0 428.6 L 63.9 425.1 L 59.3 422.3 L 55.0 418.2 L 49.6 412.0 L 46.1 407.6 L 48.9 406.0 L 65.8 396.9 L 72.7 392.0 L 78.2 385.7 L 80.6 387.1 z M 554.1 630.6 L 555.0 631.9 L 554.5 634.8 L 555.4 635.4 L 557.4 638.1 L 562.0 645.7 L 565.8 650.7 L 568.1 653.6 L 572.3 657.5 L 583.5 667.2 L 589.4 670.8 L 594.7 672.1 L 602.2 672.5 L 609.3 672.1 L 616.2 673.7 L 631.7 679.3 L 641.6 683.4 L 648.9 688.5 L 662.7 697.4 L 668.2 702.4 L 672.3 707.6 L 672.8 712.0 L 671.0 721.6 L 671.3 726.9 L 673.5 738.0 L 674.3 743.0 L 675.2 746.4 L 677.1 751.3 L 678.9 757.6 L 682.0 764.6 L 682.5 766.9 L 682.6 769.2 L 682.0 772.9 L 681.3 775.5 L 680.1 778.0 L 678.6 780.1 L 675.9 783.1 L 674.9 785.1 L 674.2 787.2 L 673.9 789.5 L 674.2 791.8 L 675.0 794.2 L 676.3 796.4 L 678.0 798.3 L 680.0 799.9 L 682.2 801.3 L 684.6 802.3 L 688.4 803.2 L 693.6 803.9 L 707.2 804.6 L 712.2 805.3 L 717.0 806.5 L 721.8 808.2 L 725.5 810.0 L 664.9 810.0 L 664.8 810.0 L 659.1 807.4 L 650.7 804.2 L 645.5 803.7 L 639.2 802.7 L 636.6 799.5 L 636.1 795.9 L 638.7 791.7 L 650.7 787.5 L 660.6 783.3 L 664.8 780.7 L 666.9 777.0 L 667.4 768.7 L 665.9 761.9 L 664.6 748.9 L 665.3 743.9 L 665.8 738.1 L 666.5 732.2 L 666.8 727.1 L 666.4 720.3 L 664.5 715.3 L 659.9 709.0 L 653.9 703.3 L 647.9 698.9 L 640.5 693.7 L 633.1 689.5 L 625.5 685.8 L 618.5 683.2 L 610.2 681.3 L 599.8 679.3 L 586.9 675.9 L 580.1 672.9 L 575.1 669.3 L 571.7 663.7 L 567.5 659.6 L 562.8 656.1 L 558.6 653.5 L 553.9 651.0 L 553.5 650.7 L 550.7 648.6 L 549.4 646.6 L 548.8 646.1 L 547.4 644.2 L 550.3 639.1 L 548.6 635.6 L 547.7 632.4 L 546.6 627.5 L 551.1 624.3 L 554.1 630.6 z M 709.8 33.4 L 708.3 73.6 L 707.2 77.7 L 704.4 86.2 L 702.6 92.7 L 700.8 97.7 L 697.3 106.2 L 695.0 110.5 L 691.6 115.7 L 691.0 117.3 L 689.7 118.9 L 686.2 124.9 L 664.4 149.6 L 643.1 168.0 L 617.9 184.3 L 606.3 189.0 L 596.0 193.1 L 572.1 201.2 L 563.0 204.5 L 552.7 207.6 L 542.2 211.7 L 533.0 216.2 L 524.9 219.6 L 516.4 222.5 L 506.1 226.4 L 496.4 229.9 L 475.0 237.2 L 465.5 241.1 L 457.8 244.1 L 450.1 246.7 L 439.3 249.6 L 425.8 253.5 L 418.3 256.3 L 402.8 261.4 L 396.0 264.1 L 385.8 268.9 L 378.3 273.3 L 373.9 277.3 L 370.5 281.9 L 367.9 287.4 L 367.6 291.8 L 367.9 296.0 L 368.6 298.4 L 368.9 298.8 L 373.1 297.9 L 374.7 301.6 L 377.4 306.1 L 380.9 310.6 L 383.1 312.8 L 385.8 314.5 L 388.2 318.3 L 390.5 322.6 L 394.1 328.6 L 396.6 332.3 L 400.6 324.9 L 404.2 328.6 L 411.7 334.5 L 417.6 337.0 L 424.3 339.0 L 429.8 341.0 L 434.1 342.9 L 437.4 345.1 L 439.6 346.9 L 449.5 341.8 L 458.5 353.1 L 462.6 357.7 L 468.2 362.5 L 472.8 364.9 L 480.1 367.1 L 485.9 368.0 L 494.3 367.9 L 503.2 366.1 L 512.7 365.3 L 522.2 367.8 L 530.2 372.3 L 536.9 377.2 L 544.2 381.4 L 549.9 383.3 L 554.0 383.5 L 558.5 384.7 L 564.9 386.0 L 575.7 388.7 L 585.9 391.0 L 594.1 392.5 L 607.0 394.5 L 607.0 394.5 L 611.0 395.1 L 618.3 397.4 L 624.8 400.2 L 630.5 401.8 L 636.9 403.4 L 648.7 405.1 L 656.0 406.0 L 659.7 402.0 L 665.3 407.9 L 669.1 404.5 L 671.2 403.4 L 672.7 403.5 L 674.2 403.1 L 676.0 402.2 L 679.3 404.0 L 683.2 407.7 L 687.1 412.0 L 691.9 415.8 L 702.9 423.0 L 718.7 428.7 L 726.0 430.6 L 734.5 433.2 L 752.0 438.3 L 760.8 441.3 L 768.6 443.0 L 788.3 446.1 L 795.8 446.7 L 795.8 810.0 L 725.5 810.0 L 721.8 808.2 L 717.0 806.5 L 712.2 805.3 L 707.2 804.6 L 693.6 803.9 L 688.4 803.2 L 684.6 802.3 L 682.2 801.3 L 680.0 799.9 L 678.0 798.3 L 676.3 796.4 L 675.0 794.2 L 674.2 791.8 L 673.9 789.5 L 674.2 787.2 L 674.9 785.1 L 675.9 783.1 L 678.6 780.1 L 680.1 778.0 L 681.3 775.5 L 682.0 772.9 L 682.6 769.2 L 682.5 766.9 L 682.0 764.6 L 678.9 757.6 L 677.1 751.3 L 675.2 746.4 L 674.3 743.0 L 673.5 738.0 L 671.3 726.9 L 671.0 721.6 L 672.8 712.0 L 672.3 707.6 L 668.2 702.4 L 662.7 697.4 L 648.9 688.5 L 641.6 683.4 L 631.7 679.3 L 616.2 673.7 L 609.3 672.1 L 602.2 672.5 L 594.7 672.1 L 589.4 670.8 L 583.5 667.2 L 572.3 657.5 L 568.1 653.6 L 565.8 650.7 L 562.0 645.7 L 557.4 638.1 L 555.4 635.4 L 554.5 634.8 L 555.0 631.9 L 554.1 630.6 L 551.1 624.3 L 546.6 627.5 L 546.2 626.3 L 545.5 625.2 L 541.6 621.8 L 538.3 619.9 L 535.8 617.8 L 532.6 614.4 L 530.7 608.8 L 530.6 601.1 L 530.3 596.7 L 529.8 592.9 L 527.6 583.0 L 527.1 577.7 L 525.5 573.3 L 522.8 571.8 L 518.7 568.6 L 515.9 563.3 L 513.4 557.2 L 510.2 550.7 L 505.4 542.9 L 499.4 533.8 L 495.7 527.9 L 492.0 522.0 L 485.7 513.9 L 479.5 508.5 L 472.8 501.6 L 467.3 496.6 L 448.0 480.9 L 439.7 475.2 L 431.2 471.3 L 424.0 468.2 L 414.8 463.8 L 407.9 460.2 L 402.1 456.8 L 396.3 451.3 L 391.2 447.0 L 387.3 445.3 L 381.6 443.4 L 376.0 442.4 L 363.3 440.4 L 355.7 438.8 L 347.5 438.0 L 338.4 437.4 L 329.2 438.0 L 319.8 440.5 L 322.0 437.4 L 313.3 438.4 L 306.5 439.6 L 296.1 442.7 L 283.6 443.4 L 275.5 444.2 L 270.4 444.2 L 265.6 444.4 L 260.3 445.7 L 255.5 447.5 L 252.9 448.3 L 250.6 448.3 L 247.6 447.2 L 245.3 445.7 L 243.5 444.7 L 231.4 443.4 L 215.6 442.9 L 204.4 442.2 L 194.3 440.6 L 179.3 439.4 L 173.7 438.1 L 169.2 437.3 L 163.6 436.1 L 150.4 434.8 L 142.5 432.5 L 137.2 431.2 L 139.5 427.9 L 135.2 426.3 L 133.5 425.9 L 130.6 424.7 L 125.9 421.9 L 113.6 417.7 L 107.7 417.0 L 102.4 416.8 L 98.5 416.4 L 86.3 412.9 L 78.5 410.9 L 82.2 402.9 L 85.6 391.8 L 83.2 389.3 L 80.6 387.1 L 78.2 385.7 L 72.7 392.0 L 65.8 396.9 L 48.9 406.0 L 46.1 407.6 L 48.6 402.7 L 55.1 391.9 L 61.6 382.7 L 60.5 380.5 L 58.5 374.2 L 57.8 369.9 L 56.6 365.8 L 54.8 363.2 L 51.8 362.6 L 45.4 368.0 L 38.5 375.7 L 32.4 381.0 L 29.5 385.0 L 26.3 381.0 L 21.9 374.9 L 16.9 368.7 L 13.9 365.5 L 11.0 363.6 L 10.0 363.3 L 10.0 193.6 L 12.5 194.6 L 16.9 196.6 L 18.9 198.0 L 20.7 201.5 L 20.6 203.1 L 20.3 204.7 L 21.1 207.2 L 22.7 209.1 L 26.4 211.8 L 30.8 214.6 L 39.7 220.0 L 42.6 218.3 L 43.0 218.8 L 45.2 220.4 L 48.3 221.9 L 57.1 224.9 L 60.5 227.7 L 66.2 237.2 L 68.7 233.5 L 70.4 235.6 L 81.8 253.6 L 85.1 260.5 L 87.7 265.1 L 92.3 274.6 L 102.6 272.1 L 106.6 273.9 L 114.4 276.7 L 119.8 277.7 L 130.6 278.8 L 135.2 279.5 L 140.0 280.5 L 146.7 283.1 L 153.6 287.0 L 158.8 290.4 L 170.2 298.3 L 176.4 303.0 L 183.8 308.0 L 189.1 310.7 L 194.5 315.9 L 202.2 300.0 L 210.6 287.1 L 216.1 287.4 L 225.2 287.1 L 228.4 286.7 L 232.4 285.3 L 235.9 283.4 L 240.6 281.4 L 246.5 280.0 L 252.6 279.2 L 248.3 283.6 L 232.3 299.8 L 219.0 321.4 L 227.1 321.4 L 236.2 318.8 L 244.7 313.7 L 252.1 307.5 L 258.0 302.9 L 274.5 286.1 L 283.9 277.9 L 293.8 269.7 L 303.0 263.2 L 311.0 258.1 L 319.1 253.4 L 329.1 248.1 L 336.8 244.9 L 354.4 239.0 L 363.9 236.0 L 373.1 233.7 L 382.7 232.0 L 388.6 230.6 L 399.5 227.3 L 409.7 224.0 L 429.5 220.5 L 439.8 218.4 L 450.9 216.2 L 472.7 213.3 L 481.1 210.7 L 488.4 206.5 L 496.2 202.9 L 505.4 199.5 L 513.7 197.3 L 522.2 195.8 L 530.9 193.1 L 543.8 187.8 L 565.9 177.6 L 569.0 176.0 L 575.3 173.1 L 589.8 166.7 L 596.1 163.5 L 599.4 162.4 L 602.0 161.4 L 606.2 158.5 L 609.0 156.6 L 619.0 144.6 L 624.4 138.3 L 633.1 128.7 L 643.6 113.7 L 648.1 105.0 L 649.0 100.9 L 651.2 97.4 L 654.5 89.5 L 656.2 81.8 L 657.4 73.5 L 657.4 69.9 L 656.9 67.2 L 657.2 60.5 L 658.7 55.2 L 658.9 50.7 L 659.3 46.6 L 659.4 41.3 L 659.4 33.0 L 658.9 25.4 L 659.0 10.0 L 708.3 10.0 L 709.8 33.4 z M 582.2 602.9 L 582.2 610.8 L 587.4 620.2 L 592.2 627.0 L 600.5 637.5 L 607.8 645.2 L 608.4 645.8 L 615.2 651.6 L 624.0 656.8 L 629.8 659.4 L 637.6 663.6 L 649.6 670.5 L 652.0 672.5 L 654.6 674.2 L 657.1 675.6 L 661.1 677.3 L 671.1 680.5 L 677.1 682.9 L 682.0 686.0 L 687.1 692.0 L 689.8 698.0 L 690.9 705.1 L 690.2 718.9 L 690.6 724.8 L 691.2 731.6 L 692.1 737.2 L 693.4 742.2 L 697.2 753.0 L 699.3 761.9 L 698.3 768.7 L 697.2 774.4 L 701.4 776.5 L 704.5 772.9 L 706.1 766.1 L 706.6 760.3 L 706.6 753.0 L 705.3 744.2 L 704.3 740.6 L 703.5 735.7 L 701.9 729.7 L 697.5 716.1 L 697.4 708.5 L 697.7 701.3 L 697.8 694.4 L 696.3 688.2 L 692.8 683.6 L 682.4 676.6 L 676.7 673.5 L 662.7 667.9 L 657.9 667.2 L 647.0 661.0 L 635.5 656.3 L 625.6 649.5 L 618.3 642.7 L 609.4 635.4 L 607.8 633.5 L 600.5 625.4 L 594.8 616.5 L 588.0 605.6 L 584.8 601.9 L 582.2 602.9 z M 46.4 13.5 L 39.0 30.4 L 35.7 38.5 L 31.4 48.0 L 27.7 58.0 L 25.8 66.6 L 24.5 78.3 L 24.6 87.6 L 25.2 97.5 L 26.6 105.7 L 28.9 113.7 L 31.3 119.8 L 34.2 126.4 L 38.4 135.2 L 46.7 150.8 L 56.3 169.1 L 60.0 176.6 L 63.5 184.2 L 67.9 191.7 L 72.6 196.4 L 76.2 193.4 L 76.7 194.0 L 78.2 195.4 L 82.3 198.6 L 86.0 202.0 L 90.4 206.1 L 92.2 208.0 L 94.1 210.7 L 96.7 215.0 L 100.1 221.3 L 108.7 236.3 L 114.4 243.0 L 120.4 246.2 L 125.4 236.9 L 134.1 240.6 L 138.6 242.0 L 145.0 244.5 L 155.4 251.3 L 161.8 253.1 L 166.9 253.3 L 172.5 254.1 L 178.6 256.9 L 185.7 260.6 L 192.7 263.4 L 199.9 266.0 L 212.4 269.4 L 220.8 271.5 L 228.2 261.4 L 230.9 256.7 L 235.7 255.5 L 247.0 248.5 L 254.6 245.2 L 261.5 243.0 L 268.2 240.4 L 274.8 239.1 L 286.7 235.3 L 291.6 234.3 L 294.4 234.6 L 299.7 233.3 L 307.0 231.4 L 312.5 229.8 L 327.5 226.1 L 337.3 223.1 L 344.4 221.2 L 362.7 217.1 L 381.9 213.3 L 392.0 210.2 L 401.9 207.0 L 411.2 204.6 L 422.4 201.3 L 430.3 199.1 L 440.6 197.2 L 451.8 194.3 L 460.9 192.2 L 471.7 189.3 L 482.8 185.0 L 492.6 180.9 L 502.2 175.9 L 510.4 170.9 L 520.5 165.7 L 531.4 162.0 L 539.1 158.6 L 546.7 153.3 L 552.5 148.4 L 559.9 143.3 L 569.5 137.6 L 577.5 132.2 L 584.6 126.6 L 598.2 114.4 L 601.1 108.5 L 602.9 104.2 L 606.0 96.4 L 606.0 96.3 L 608.0 91.1 L 611.8 83.3 L 618.2 71.1 L 622.5 62.6 L 625.2 54.9 L 626.5 46.8 L 627.4 31.8 L 627.5 24.3 L 626.8 13.7 L 626.4 10.0 L 659.0 10.0 L 658.9 25.4 L 659.4 33.0 L 659.4 41.3 L 659.3 46.6 L 658.9 50.7 L 658.7 55.2 L 657.2 60.5 L 656.9 67.2 L 657.4 69.9 L 657.4 73.5 L 656.2 81.8 L 654.5 89.5 L 651.2 97.4 L 649.0 100.9 L 648.1 105.0 L 643.6 113.7 L 633.1 128.7 L 624.4 138.3 L 619.0 144.6 L 609.0 156.6 L 606.2 158.5 L 602.0 161.4 L 599.4 162.4 L 596.1 163.5 L 589.8 166.7 L 575.3 173.1 L 569.0 176.0 L 565.9 177.6 L 543.8 187.8 L 530.9 193.1 L 522.2 195.8 L 513.7 197.3 L 505.4 199.5 L 496.2 202.9 L 488.4 206.5 L 481.1 210.7 L 472.7 213.3 L 450.9 216.2 L 439.8 218.4 L 429.5 220.5 L 409.7 224.0 L 399.5 227.3 L 388.6 230.6 L 382.7 232.0 L 373.1 233.7 L 363.9 236.0 L 354.4 239.0 L 336.8 244.9 L 329.1 248.1 L 319.1 253.4 L 311.0 258.1 L 303.0 263.2 L 293.8 269.7 L 283.9 277.9 L 274.5 286.1 L 258.0 302.9 L 252.1 307.5 L 244.7 313.7 L 236.2 318.8 L 227.1 321.4 L 219.0 321.4 L 232.3 299.8 L 248.3 283.6 L 252.6 279.2 L 246.5 280.0 L 240.6 281.4 L 235.9 283.4 L 232.4 285.3 L 228.4 286.7 L 225.2 287.1 L 216.1 287.4 L 210.6 287.1 L 202.2 300.0 L 194.5 315.9 L 189.1 310.7 L 183.8 308.0 L 176.4 303.0 L 170.2 298.3 L 158.8 290.4 L 153.6 287.0 L 146.7 283.1 L 140.0 280.5 L 135.2 279.5 L 130.6 278.8 L 119.8 277.7 L 114.4 276.7 L 106.6 273.9 L 102.6 272.1 L 92.3 274.6 L 87.7 265.1 L 85.1 260.5 L 81.8 253.6 L 70.4 235.6 L 68.7 233.5 L 66.2 237.2 L 60.5 227.7 L 57.1 224.9 L 48.3 221.9 L 45.2 220.4 L 43.0 218.8 L 42.6 218.3 L 39.7 220.0 L 30.8 214.6 L 26.4 211.8 L 22.7 209.1 L 21.1 207.2 L 20.3 204.7 L 20.6 203.1 L 20.7 201.5 L 18.9 198.0 L 16.9 196.6 L 12.5 194.6 L 10.0 193.6 L 10.0 10.0 L 48.2 10.0 L 46.4 13.5 z M 82.9 17.5 L 77.6 24.9 L 76.0 26.5 L 74.0 29.5 L 69.7 33.5 L 65.3 37.0 L 61.0 42.2 L 57.2 49.7 L 54.2 60.1 L 52.3 69.7 L 51.1 79.5 L 50.8 88.1 L 51.3 94.9 L 52.8 103.2 L 56.5 112.4 L 60.6 120.0 L 65.4 126.4 L 75.8 140.9 L 81.4 148.3 L 86.1 155.6 L 91.0 162.4 L 97.9 171.5 L 100.7 168.5 L 101.6 169.9 L 105.1 174.7 L 112.0 184.9 L 115.9 180.2 L 115.6 182.3 L 115.7 186.0 L 116.6 188.8 L 117.7 191.3 L 119.1 193.7 L 128.1 205.1 L 132.3 209.8 L 136.8 213.7 L 142.0 207.0 L 153.5 210.0 L 164.4 213.8 L 184.4 224.1 L 198.6 231.0 L 210.3 235.6 L 215.5 237.1 L 225.5 238.5 L 229.3 238.6 L 231.9 238.4 L 234.7 238.0 L 236.7 237.5 L 239.1 238.0 L 242.9 237.2 L 240.8 240.5 L 239.8 242.2 L 241.7 241.9 L 245.2 240.8 L 260.2 234.6 L 270.7 229.7 L 277.6 226.2 L 285.5 222.9 L 293.8 220.5 L 301.9 219.0 L 309.7 217.4 L 317.9 215.3 L 335.2 210.5 L 356.7 205.1 L 371.1 201.6 L 390.4 195.5 L 401.2 193.0 L 415.4 189.3 L 429.6 185.3 L 448.5 180.3 L 472.0 173.5 L 482.3 170.3 L 484.1 169.5 L 485.5 169.0 L 504.7 160.5 L 524.3 150.5 L 541.4 138.8 L 561.4 122.1 L 573.9 109.6 L 584.8 99.2 L 591.8 87.5 L 594.8 82.5 L 598.7 67.0 L 600.9 52.9 L 600.9 34.0 L 601.3 18.4 L 602.0 10.0 L 626.4 10.0 L 626.8 13.7 L 627.5 24.3 L 627.4 31.8 L 626.5 46.8 L 625.2 54.9 L 622.5 62.6 L 618.2 71.1 L 611.8 83.3 L 608.0 91.1 L 606.0 96.3 L 606.0 96.4 L 602.9 104.2 L 601.1 108.5 L 598.2 114.4 L 584.6 126.6 L 577.5 132.2 L 569.5 137.6 L 559.9 143.3 L 552.5 148.4 L 546.7 153.3 L 539.1 158.6 L 531.4 162.0 L 520.5 165.7 L 510.4 170.9 L 502.2 175.9 L 492.6 180.9 L 482.8 185.0 L 471.7 189.3 L 460.9 192.2 L 451.8 194.3 L 440.6 197.2 L 430.3 199.1 L 422.4 201.3 L 411.2 204.6 L 401.9 207.0 L 392.0 210.2 L 381.9 213.3 L 362.7 217.1 L 344.4 221.2 L 337.3 223.1 L 327.5 226.1 L 312.5 229.8 L 307.0 231.4 L 299.7 233.3 L 294.4 234.6 L 291.6 234.3 L 286.7 235.3 L 274.8 239.1 L 268.2 240.4 L 261.5 243.0 L 254.6 245.2 L 247.0 248.5 L 235.7 255.5 L 230.9 256.7 L 228.2 261.4 L 220.8 271.5 L 212.4 269.4 L 199.9 266.0 L 192.7 263.4 L 185.7 260.6 L 178.6 256.9 L 172.5 254.1 L 166.9 253.3 L 161.8 253.1 L 155.4 251.3 L 145.0 244.5 L 138.6 242.0 L 134.1 240.6 L 125.4 236.9 L 120.4 246.2 L 114.4 243.0 L 108.7 236.3 L 100.1 221.3 L 96.7 215.0 L 94.1 210.7 L 92.2 208.0 L 90.4 206.1 L 86.0 202.0 L 82.3 198.6 L 78.2 195.4 L 76.7 194.0 L 76.2 193.4 L 72.6 196.4 L 67.9 191.7 L 63.5 184.2 L 60.0 176.6 L 56.3 169.1 L 46.7 150.8 L 38.4 135.2 L 34.2 126.4 L 31.3 119.8 L 28.9 113.7 L 26.6 105.7 L 25.2 97.5 L 24.6 87.6 L 24.5 78.3 L 25.8 66.6 L 27.7 58.0 L 31.4 48.0 L 35.7 38.5 L 39.0 30.4 L 46.4 13.5 L 48.2 10.0 L 86.6 10.0 L 82.9 17.5 z M 54.8 363.2 L 56.6 365.8 L 57.8 369.9 L 58.5 374.2 L 60.5 380.5 L 61.6 382.7 L 55.1 391.9 L 48.6 402.7 L 46.1 407.6 L 39.9 415.1 L 31.9 422.4 L 30.0 424.0 L 26.0 418.2 L 23.4 415.0 L 19.7 411.2 L 12.9 405.7 L 11.8 405.3 L 11.1 404.7 L 10.0 405.9 L 10.0 363.3 L 11.0 363.6 L 13.9 365.5 L 16.9 368.7 L 21.9 374.9 L 26.3 381.0 L 29.5 385.0 L 32.4 381.0 L 38.5 375.7 L 45.4 368.0 L 51.8 362.6 L 54.8 363.2 z M 433.3 289.0 L 433.7 291.3 L 434.6 293.7 L 437.2 297.4 L 439.7 299.6 L 443.8 302.0 L 447.6 303.5 L 452.1 304.7 L 456.7 305.0 L 460.9 305.1 L 464.9 307.2 L 467.2 309.9 L 468.4 313.3 L 468.5 316.3 L 469.3 319.3 L 470.9 321.9 L 473.9 323.1 L 480.5 323.4 L 482.7 321.7 L 486.3 323.6 L 488.8 325.4 L 495.5 328.9 L 507.2 333.8 L 512.7 335.9 L 519.5 337.9 L 526.5 338.2 L 534.1 337.6 L 540.7 336.0 L 547.6 333.5 L 553.1 331.7 L 559.8 331.7 L 566.5 333.0 L 574.4 335.2 L 582.7 338.2 L 590.4 341.7 L 596.8 344.0 L 602.2 344.2 L 606.8 344.1 L 607.7 344.1 L 619.4 344.6 L 628.0 343.9 L 629.5 343.9 L 632.4 343.4 L 638.7 343.0 L 643.9 343.4 L 649.0 344.8 L 655.1 346.0 L 662.7 346.8 L 667.4 346.6 L 674.7 346.4 L 681.3 347.7 L 687.4 349.8 L 691.9 352.1 L 699.9 357.3 L 705.1 359.8 L 711.8 362.6 L 717.1 364.1 L 723.7 366.3 L 730.9 369.3 L 740.4 374.1 L 746.9 376.6 L 752.9 376.6 L 758.0 375.7 L 770.8 376.7 L 776.8 378.9 L 785.0 382.6 L 792.9 385.9 L 795.8 387.1 L 795.8 406.2 L 786.8 403.1 L 782.0 401.0 L 778.5 400.3 L 771.1 397.9 L 768.4 396.4 L 766.0 394.3 L 764.6 392.3 L 763.7 391.3 L 753.4 393.7 L 740.0 395.7 L 723.1 396.7 L 723.8 393.9 L 724.0 390.2 L 723.7 387.8 L 722.0 384.0 L 718.6 385.1 L 718.5 382.3 L 717.1 380.2 L 712.6 375.4 L 708.5 373.2 L 703.9 371.4 L 698.6 369.5 L 694.6 366.8 L 686.9 360.7 L 682.6 357.5 L 678.3 355.4 L 674.2 354.0 L 669.3 353.1 L 663.5 352.8 L 656.4 352.8 L 647.4 353.0 L 637.6 353.8 L 617.2 353.5 L 610.2 353.6 L 606.8 354.1 L 602.7 354.8 L 593.3 353.8 L 585.7 351.8 L 581.8 348.9 L 575.2 345.1 L 566.9 343.1 L 562.4 342.4 L 555.5 340.8 L 537.8 341.5 L 530.8 342.5 L 524.4 343.7 L 517.8 344.1 L 510.7 343.8 L 502.0 343.1 L 496.9 341.9 L 492.8 339.2 L 489.4 335.8 L 486.0 333.6 L 480.0 332.2 L 470.4 330.9 L 467.1 329.4 L 464.8 327.4 L 463.6 325.2 L 462.0 319.9 L 460.6 316.1 L 458.6 313.1 L 456.6 311.6 L 454.5 311.3 L 453.5 314.4 L 447.9 314.2 L 445.6 313.6 L 442.1 312.2 L 438.7 310.3 L 436.9 309.1 L 434.6 306.6 L 431.6 302.9 L 428.7 297.7 L 427.4 292.5 L 433.2 286.6 L 433.3 289.0 z M 765.2 19.6 L 763.7 26.5 L 761.3 33.8 L 757.2 44.1 L 755.1 48.4 L 751.9 54.1 L 749.5 59.5 L 748.6 64.4 L 749.1 71.6 L 750.2 76.4 L 751.2 81.5 L 750.7 87.0 L 749.3 90.5 L 743.3 101.0 L 741.3 102.9 L 739.5 104.4 L 735.7 107.0 L 720.5 126.8 L 701.1 147.2 L 677.4 165.9 L 650.8 183.8 L 626.9 196.5 L 610.3 203.0 L 606.3 204.8 L 606.3 204.8 L 581.5 216.0 L 554.3 224.9 L 526.9 232.9 L 493.2 244.4 L 474.7 251.3 L 455.8 259.9 L 445.4 268.8 L 437.4 279.8 L 434.1 285.7 L 433.2 286.6 L 427.4 292.5 L 428.7 297.7 L 431.6 302.9 L 434.6 306.6 L 436.9 309.1 L 438.7 310.3 L 442.1 312.2 L 445.6 313.6 L 447.9 314.2 L 453.5 314.4 L 454.5 311.3 L 456.6 311.6 L 458.6 313.1 L 460.6 316.1 L 462.0 319.9 L 463.6 325.2 L 464.8 327.4 L 467.1 329.4 L 470.4 330.9 L 480.0 332.2 L 486.0 333.6 L 489.4 335.8 L 492.8 339.2 L 496.9 341.9 L 502.0 343.1 L 510.7 343.8 L 517.8 344.1 L 524.4 343.7 L 530.8 342.5 L 537.8 341.5 L 555.5 340.8 L 562.4 342.4 L 566.9 343.1 L 575.2 345.1 L 581.8 348.9 L 585.7 351.8 L 593.3 353.8 L 602.7 354.8 L 606.8 354.1 L 610.2 353.6 L 617.2 353.5 L 637.6 353.8 L 647.4 353.0 L 656.4 352.8 L 663.5 352.8 L 669.3 353.1 L 674.2 354.0 L 678.3 355.4 L 682.6 357.5 L 686.9 360.7 L 694.6 366.8 L 698.6 369.5 L 703.9 371.4 L 708.5 373.2 L 712.6 375.4 L 717.1 380.2 L 718.5 382.3 L 718.6 385.1 L 722.0 384.0 L 723.7 387.8 L 724.0 390.2 L 723.8 393.9 L 723.1 396.7 L 740.0 395.7 L 753.4 393.7 L 763.7 391.3 L 764.6 392.3 L 766.0 394.3 L 768.4 396.4 L 771.1 397.9 L 778.5 400.3 L 782.0 401.0 L 786.8 403.1 L 795.8 406.2 L 795.8 420.5 L 785.0 418.8 L 777.0 416.8 L 769.1 415.8 L 761.9 414.5 L 752.7 413.3 L 743.9 413.2 L 734.9 412.9 L 728.3 411.1 L 722.0 407.1 L 718.9 403.1 L 716.0 396.9 L 697.9 400.0 L 699.7 406.0 L 701.6 409.7 L 705.4 414.8 L 708.6 417.3 L 712.3 418.6 L 716.2 419.2 L 722.1 419.9 L 729.1 421.1 L 736.5 423.3 L 749.4 427.6 L 761.7 430.0 L 769.6 430.5 L 783.2 430.1 L 791.7 430.6 L 795.8 431.1 L 795.8 446.7 L 788.3 446.1 L 768.6 443.0 L 760.8 441.3 L 752.0 438.3 L 734.5 433.2 L 726.0 430.6 L 718.7 428.7 L 702.9 423.0 L 691.9 415.8 L 687.1 412.0 L 683.2 407.7 L 679.3 404.0 L 676.0 402.2 L 673.3 398.2 L 668.8 394.3 L 671.9 389.3 L 670.4 388.6 L 668.9 384.8 L 666.8 381.5 L 659.8 382.0 L 654.6 380.3 L 645.4 377.9 L 636.2 376.1 L 618.4 373.5 L 606.9 372.9 L 598.0 372.4 L 590.1 372.4 L 582.7 372.7 L 575.2 373.2 L 568.6 372.1 L 563.8 369.7 L 551.2 360.4 L 547.4 357.5 L 538.9 354.6 L 532.8 354.4 L 526.1 354.8 L 520.5 355.8 L 512.6 357.5 L 504.7 358.4 L 498.0 358.6 L 490.8 357.9 L 485.0 356.1 L 479.9 353.7 L 475.9 351.6 L 471.0 348.7 L 467.4 345.9 L 464.6 343.2 L 463.6 341.7 L 460.8 338.3 L 459.8 336.7 L 454.9 339.4 L 459.5 344.7 L 462.6 348.5 L 467.3 351.8 L 473.5 355.9 L 479.5 358.9 L 488.2 360.8 L 504.3 361.3 L 511.9 361.1 L 526.5 360.9 L 530.8 363.3 L 535.4 369.7 L 542.1 373.8 L 549.3 376.6 L 557.1 378.6 L 564.2 380.0 L 570.9 380.9 L 577.6 382.0 L 584.3 384.1 L 589.2 385.4 L 596.2 387.0 L 602.0 387.6 L 607.0 387.7 L 609.4 387.7 L 616.6 387.2 L 622.8 387.1 L 628.6 387.6 L 641.9 390.7 L 646.5 393.7 L 651.0 397.1 L 654.0 398.5 L 656.9 400.8 L 659.7 402.0 L 656.0 406.0 L 648.7 405.1 L 636.9 403.4 L 630.5 401.8 L 624.8 400.2 L 618.3 397.4 L 611.0 395.1 L 607.0 394.5 L 607.0 394.5 L 594.1 392.5 L 585.9 391.0 L 575.7 388.7 L 564.9 386.0 L 558.5 384.7 L 554.0 383.5 L 549.9 383.3 L 544.2 381.4 L 536.9 377.2 L 530.2 372.3 L 522.2 367.8 L 512.7 365.3 L 503.2 366.1 L 494.3 367.9 L 485.9 368.0 L 480.1 367.1 L 472.8 364.9 L 468.2 362.5 L 462.6 357.7 L 458.5 353.1 L 449.5 341.8 L 439.6 346.9 L 437.4 345.1 L 434.1 342.9 L 429.8 341.0 L 424.3 339.0 L 417.6 337.0 L 411.7 334.5 L 404.2 328.6 L 400.6 324.9 L 396.6 332.3 L 394.1 328.6 L 390.5 322.6 L 388.2 318.3 L 385.8 314.5 L 383.1 312.8 L 380.9 310.6 L 377.4 306.1 L 374.7 301.6 L 373.1 297.9 L 368.9 298.8 L 368.6 298.4 L 367.9 296.0 L 367.6 291.8 L 367.9 287.4 L 370.5 281.9 L 373.9 277.3 L 378.3 273.3 L 385.8 268.9 L 396.0 264.1 L 402.8 261.4 L 418.3 256.3 L 425.8 253.5 L 439.3 249.6 L 450.1 246.7 L 457.8 244.1 L 465.5 241.1 L 475.0 237.2 L 496.4 229.9 L 506.1 226.4 L 516.4 222.5 L 524.9 219.6 L 533.0 216.2 L 542.2 211.7 L 552.7 207.6 L 563.0 204.5 L 572.1 201.2 L 596.0 193.1 L 606.3 189.0 L 617.9 184.3 L 643.1 168.0 L 664.4 149.6 L 686.2 124.9 L 689.7 118.9 L 691.0 117.3 L 691.6 115.7 L 695.0 110.5 L 697.3 106.2 L 700.8 97.7 L 702.6 92.7 L 704.4 86.2 L 707.2 77.7 L 708.3 73.6 L 709.8 33.4 L 708.3 10.0 L 765.0 10.0 L 765.2 19.6 z M 445.8 277.5 L 444.7 280.2 L 442.4 287.3 L 442.8 289.5 L 443.5 291.8 L 446.2 294.1 L 449.2 295.9 L 452.2 298.2 L 459.3 301.2 L 461.9 301.6 L 465.7 303.4 L 467.6 304.2 L 471.7 306.4 L 474.7 308.7 L 482.2 314.7 L 485.5 318.7 L 488.2 315.8 L 490.5 317.0 L 495.7 320.0 L 499.1 321.5 L 506.2 323.7 L 512.6 326.7 L 517.9 328.6 L 523.1 330.1 L 528.4 331.2 L 535.5 331.2 L 540.1 330.7 L 547.2 329.9 L 552.4 329.3 L 560.7 329.0 L 561.8 329.0 L 568.0 330.4 L 570.0 330.8 L 574.9 332.3 L 578.7 333.5 L 585.0 336.1 L 592.9 338.4 L 595.2 339.1 L 601.6 340.6 L 606.8 341.2 L 611.3 341.7 L 624.1 339.5 L 630.5 338.7 L 633.8 339.5 L 639.1 339.8 L 644.7 339.5 L 649.6 339.5 L 657.5 339.1 L 669.9 339.8 L 679.6 341.0 L 690.5 343.2 L 698.8 345.9 L 705.2 348.5 L 710.0 350.7 L 730.7 359.0 L 738.2 360.1 L 745.3 360.5 L 752.1 360.5 L 770.1 362.4 L 785.9 364.3 L 791.9 365.4 L 795.8 365.4 L 795.8 387.1 L 792.9 385.9 L 785.0 382.6 L 776.8 378.9 L 770.8 376.7 L 758.0 375.7 L 752.9 376.6 L 746.9 376.6 L 740.4 374.1 L 730.9 369.3 L 723.7 366.3 L 717.1 364.1 L 711.8 362.6 L 705.1 359.8 L 699.9 357.3 L 691.9 352.1 L 687.4 349.8 L 681.3 347.7 L 674.7 346.4 L 667.4 346.6 L 662.7 346.8 L 655.1 346.0 L 649.0 344.8 L 643.9 343.4 L 638.7 343.0 L 632.4 343.4 L 629.5 343.9 L 628.0 343.9 L 619.4 344.6 L 607.7 344.1 L 606.8 344.1 L 602.2 344.2 L 596.8 344.0 L 590.4 341.7 L 582.7 338.2 L 574.4 335.2 L 566.5 333.0 L 559.8 331.7 L 553.1 331.7 L 547.6 333.5 L 540.7 336.0 L 534.1 337.6 L 526.5 338.2 L 519.5 337.9 L 512.7 335.9 L 507.2 333.8 L 495.5 328.9 L 488.8 325.4 L 486.3 323.6 L 482.7 321.7 L 480.5 323.4 L 473.9 323.1 L 470.9 321.9 L 469.3 319.3 L 468.5 316.3 L 468.4 313.3 L 467.2 309.9 L 464.9 307.2 L 460.9 305.1 L 456.7 305.0 L 452.1 304.7 L 447.6 303.5 L 443.8 302.0 L 439.7 299.6 L 437.2 297.4 L 434.6 293.7 L 433.7 291.3 L 433.3 289.0 L 433.2 286.6 L 434.1 285.7 L 437.4 279.8 L 445.7 275.2 L 448.4 273.7 L 445.8 277.5 z M 367.8 30.4 L 370.9 32.4 L 373.8 35.7 L 376.4 39.7 L 378.5 43.7 L 379.2 45.9 L 380.6 47.7 L 382.6 48.7 L 385.7 48.0 L 390.2 47.8 L 394.7 49.2 L 398.3 51.9 L 401.0 54.3 L 405.9 57.6 L 410.5 59.8 L 416.2 60.5 L 423.7 59.6 L 431.0 58.4 L 437.2 58.3 L 439.4 59.9 L 439.6 61.7 L 438.8 65.2 L 437.5 66.6 L 435.0 67.2 L 432.9 67.4 L 429.1 69.6 L 424.6 76.2 L 422.9 77.5 L 420.4 78.7 L 410.0 82.2 L 405.2 85.9 L 402.7 88.7 L 400.7 90.9 L 393.5 96.1 L 389.0 98.9 L 383.7 101.5 L 376.8 105.0 L 372.4 107.5 L 361.3 109.2 L 356.7 108.9 L 352.9 107.0 L 349.2 102.9 L 347.3 98.9 L 347.5 95.6 L 349.3 93.1 L 353.3 92.1 L 358.5 93.5 L 365.1 95.1 L 369.7 95.3 L 376.1 94.1 L 385.5 90.2 L 391.8 89.2 L 397.0 85.6 L 397.7 78.9 L 395.7 77.2 L 391.7 77.4 L 386.7 78.0 L 380.6 77.9 L 374.7 76.9 L 368.3 76.0 L 362.0 74.2 L 357.2 70.8 L 355.4 67.3 L 355.6 63.4 L 356.9 60.4 L 358.6 58.0 L 360.2 54.3 L 360.3 46.2 L 359.6 39.8 L 360.0 35.5 L 362.0 31.9 L 364.8 30.2 L 367.8 30.4 z M 27.8 434.4 L 43.4 443.4 L 53.6 447.1 L 59.3 447.5 L 63.9 449.1 L 62.7 453.0 L 66.6 456.0 L 71.6 461.4 L 76.0 465.7 L 81.8 467.5 L 90.1 469.3 L 108.0 472.2 L 121.8 474.4 L 133.8 477.7 L 142.0 471.4 L 145.9 468.6 L 155.8 469.5 L 174.4 470.6 L 192.4 471.7 L 216.1 472.6 L 221.0 472.8 L 216.9 478.0 L 214.2 480.9 L 220.5 482.2 L 226.7 483.8 L 234.6 484.3 L 246.1 484.8 L 261.2 484.8 L 280.1 488.5 L 285.0 490.4 L 289.6 485.5 L 292.1 484.8 L 299.9 486.4 L 309.9 487.9 L 324.5 491.1 L 331.8 495.3 L 337.0 499.4 L 342.3 506.8 L 344.4 513.0 L 348.5 519.3 L 354.3 522.4 L 361.1 523.0 L 366.3 521.9 L 381.5 520.3 L 389.3 523.0 L 400.8 527.7 L 411.3 531.3 L 419.1 537.6 L 429.6 543.3 L 435.8 549.1 L 443.7 556.9 L 448.4 565.3 L 451.5 573.7 L 453.6 583.1 L 452.6 593.5 L 454.1 598.8 L 457.8 604.0 L 461.5 606.1 L 464.6 608.7 L 465.6 621.2 L 465.6 632.7 L 463.6 643.7 L 461.5 651.0 L 461.5 651.0 L 454.7 659.4 L 448.9 665.2 L 445.3 669.3 L 446.8 672.0 L 451.0 671.4 L 463.0 664.6 L 472.4 660.5 L 477.9 657.2 L 483.6 658.7 L 485.0 662.2 L 485.4 668.8 L 484.3 676.0 L 483.9 682.5 L 484.6 687.7 L 487.4 694.4 L 492.2 700.4 L 504.7 707.9 L 509.0 709.1 L 513.2 709.2 L 517.4 708.2 L 520.0 708.5 L 522.2 713.2 L 523.0 717.6 L 525.1 721.5 L 530.2 725.8 L 535.5 728.9 L 539.6 731.9 L 543.7 733.6 L 548.4 734.3 L 552.5 736.0 L 553.0 736.6 L 554.3 739.1 L 554.4 741.3 L 552.4 743.9 L 548.9 745.9 L 546.8 748.3 L 546.1 749.9 L 546.8 752.2 L 547.4 754.0 L 547.4 755.2 L 547.2 756.7 L 541.4 764.5 L 535.7 769.2 L 529.4 772.9 L 522.6 775.5 L 513.2 777.6 L 501.2 778.6 L 494.4 780.2 L 485.0 784.4 L 476.6 788.5 L 467.2 789.1 L 458.9 790.1 L 448.4 793.8 L 442.1 797.9 L 434.3 802.7 L 428.0 803.2 L 421.7 801.6 L 413.9 797.9 L 410.2 795.3 L 407.1 789.9 L 407.1 788.7 L 406.9 786.4 L 406.2 783.5 L 405.4 781.4 L 402.9 778.8 L 398.4 775.7 L 392.8 773.0 L 387.4 770.9 L 381.8 769.0 L 376.3 765.7 L 374.9 762.0 L 374.6 759.5 L 371.0 755.5 L 364.6 754.4 L 356.7 754.7 L 339.4 756.3 L 322.9 756.0 L 311.5 756.3 L 300.2 756.3 L 292.0 755.7 L 285.9 754.7 L 278.8 749.1 L 279.5 746.6 L 279.0 743.2 L 277.7 742.3 L 274.8 742.5 L 269.7 745.3 L 265.6 744.8 L 260.4 742.3 L 257.6 738.9 L 257.4 735.0 L 258.8 730.6 L 261.2 725.1 L 261.5 720.0 L 260.1 716.0 L 258.2 713.9 L 257.8 713.0 L 257.6 712.1 L 257.5 710.8 L 257.7 710.3 L 258.3 709.3 L 261.9 706.3 L 263.3 704.8 L 263.8 703.8 L 263.9 703.1 L 263.9 702.6 L 263.7 702.1 L 263.2 701.8 L 262.6 701.7 L 260.2 701.5 L 257.8 701.1 L 256.5 700.6 L 253.1 699.1 L 251.9 698.7 L 246.4 697.7 L 245.1 697.2 L 244.5 696.6 L 244.3 696.2 L 244.2 695.7 L 244.4 693.9 L 246.0 690.7 L 249.1 687.5 L 251.1 684.7 L 251.6 681.9 L 251.0 678.6 L 247.6 672.9 L 241.7 668.1 L 234.1 664.4 L 228.1 662.8 L 222.3 661.1 L 216.3 660.1 L 208.8 659.7 L 202.2 659.8 L 195.3 659.4 L 188.6 657.7 L 182.6 655.1 L 178.0 652.0 L 177.7 651.7 L 174.8 648.1 L 171.7 642.4 L 169.2 639.4 L 165.6 638.0 L 162.2 637.6 L 159.6 637.0 L 156.6 633.7 L 154.0 631.6 L 152.0 630.7 L 151.8 630.4 L 148.9 631.5 L 143.2 628.6 L 137.7 624.7 L 131.2 620.3 L 113.2 616.5 L 105.6 614.9 L 97.3 613.5 L 82.2 610.9 L 79.9 610.6 L 70.6 609.3 L 64.0 610.2 L 49.8 612.3 L 38.0 608.0 L 30.8 604.4 L 23.6 601.5 L 16.4 599.7 L 10.0 599.7 L 10.0 584.4 L 17.6 585.6 L 30.5 587.9 L 44.3 592.2 L 51.1 594.7 L 61.4 597.3 L 68.9 598.7 L 75.8 600.3 L 83.0 602.4 L 100.4 605.9 L 115.7 604.7 L 121.0 606.1 L 123.1 606.3 L 125.5 606.7 L 151.6 612.0 L 156.7 612.9 L 168.1 613.0 L 184.5 614.8 L 201.3 620.1 L 213.7 624.5 L 227.0 628.5 L 240.2 634.2 L 254.8 639.1 L 268.1 643.1 L 284.5 647.1 L 293.6 651.4 L 294.7 651.9 L 303.5 654.6 L 308.8 658.6 L 312.8 660.8 L 322.1 662.1 L 338.0 661.2 L 358.4 657.7 L 374.7 653.7 L 382.2 651.5 L 382.9 651.2 L 392.0 647.5 L 400.8 642.6 L 407.0 637.3 L 411.0 631.6 L 415.0 624.5 L 417.6 616.1 L 421.6 611.2 L 424.7 608.6 L 426.9 605.9 L 427.8 597.5 L 422.5 582.5 L 415.4 572.8 L 410.1 567.0 L 400.8 559.5 L 386.7 553.7 L 367.6 550.2 L 352.6 548.9 L 336.7 546.2 L 326.9 543.1 L 316.8 537.4 L 309.7 532.9 L 303.5 526.3 L 290.7 520.5 L 280.5 515.2 L 271.6 510.4 L 267.7 508.4 L 263.7 512.6 L 254.3 509.6 L 242.8 506.9 L 234.0 502.9 L 220.4 499.8 L 211.9 499.1 L 203.1 497.8 L 199.3 497.4 L 202.4 494.0 L 194.2 493.6 L 169.9 494.4 L 154.0 491.8 L 139.8 489.1 L 124.3 485.1 L 122.7 486.3 L 100.6 483.5 L 94.5 483.0 L 87.9 482.8 L 76.1 481.5 L 67.4 479.8 L 55.2 477.2 L 46.6 474.8 L 48.3 472.8 L 45.8 472.1 L 42.1 471.3 L 34.8 470.0 L 27.0 469.2 L 18.4 467.2 L 10.0 465.5 L 10.0 434.7 L 10.2 434.8 L 14.2 438.2 L 16.6 436.1 L 17.4 435.4 L 21.9 432.3 L 27.8 434.4 z M 588.0 605.6 L 594.8 616.5 L 600.5 625.4 L 607.8 633.5 L 609.4 635.4 L 618.3 642.7 L 625.6 649.5 L 635.5 656.3 L 647.0 661.0 L 657.9 667.2 L 662.7 667.9 L 676.7 673.5 L 682.4 676.6 L 692.8 683.6 L 696.3 688.2 L 697.8 694.4 L 697.7 701.3 L 697.4 708.5 L 697.5 716.1 L 701.9 729.7 L 703.5 735.7 L 704.3 740.6 L 705.3 744.2 L 706.6 753.0 L 706.6 760.3 L 706.1 766.1 L 704.5 772.9 L 701.4 776.5 L 697.2 774.4 L 698.3 768.7 L 699.3 761.9 L 697.2 753.0 L 693.4 742.2 L 692.1 737.2 L 691.2 731.6 L 690.6 724.8 L 690.2 718.9 L 690.9 705.1 L 689.8 698.0 L 687.1 692.0 L 682.0 686.0 L 677.1 682.9 L 671.1 680.5 L 661.1 677.3 L 657.1 675.6 L 654.6 674.2 L 652.0 672.5 L 649.6 670.5 L 637.6 663.6 L 629.8 659.4 L 624.0 656.8 L 615.2 651.6 L 608.4 645.8 L 607.8 645.2 L 600.5 637.5 L 592.2 627.0 L 587.4 620.2 L 582.2 610.8 L 582.2 602.9 L 584.8 601.9 L 588.0 605.6 z M 547.7 632.4 L 548.6 635.6 L 550.3 639.1 L 547.4 644.2 L 548.8 646.1 L 549.4 646.6 L 550.7 648.6 L 553.5 650.7 L 553.9 651.0 L 558.6 653.5 L 562.8 656.1 L 567.5 659.6 L 571.7 663.7 L 575.1 669.3 L 580.1 672.9 L 586.9 675.9 L 599.8 679.3 L 610.2 681.3 L 618.5 683.2 L 625.5 685.8 L 633.1 689.5 L 640.5 693.7 L 647.9 698.9 L 653.9 703.3 L 659.9 709.0 L 664.5 715.3 L 666.4 720.3 L 666.8 727.1 L 666.5 732.2 L 665.8 738.1 L 665.3 743.9 L 664.6 748.9 L 665.9 761.9 L 667.4 768.7 L 666.9 777.0 L 664.8 780.7 L 660.6 783.3 L 650.7 787.5 L 638.7 791.7 L 636.1 795.9 L 636.6 799.5 L 639.2 802.7 L 645.5 803.7 L 650.7 804.2 L 659.1 807.4 L 664.8 810.0 L 664.9 810.0 L 642.5 810.0 L 638.8 809.3 L 633.4 808.9 L 626.7 809.0 L 621.8 808.7 L 616.4 807.7 L 611.7 804.9 L 610.1 802.4 L 609.8 795.7 L 612.0 791.8 L 617.2 787.9 L 624.4 785.6 L 630.5 784.5 L 637.8 782.6 L 642.0 781.8 L 646.3 780.5 L 648.5 779.5 L 649.7 778.7 L 650.1 778.3 L 650.4 777.7 L 652.8 772.3 L 653.8 765.5 L 653.3 758.7 L 652.3 749.3 L 653.3 737.9 L 656.9 732.6 L 658.0 729.9 L 658.1 728.1 L 657.8 724.5 L 656.7 719.3 L 654.5 714.4 L 649.9 708.9 L 645.3 704.7 L 640.4 700.8 L 635.6 697.9 L 628.7 694.6 L 614.9 692.9 L 598.6 689.1 L 590.7 686.7 L 583.3 684.6 L 570.4 680.1 L 563.0 677.8 L 557.5 674.3 L 546.4 662.6 L 545.2 658.2 L 546.0 655.2 L 544.8 652.2 L 543.0 650.8 L 542.4 650.3 L 539.9 647.3 L 538.8 643.4 L 538.4 637.2 L 538.4 633.3 L 546.6 627.5 L 547.7 632.4 z M 498.6 10.8 L 499.1 15.1 L 499.1 18.6 L 498.9 22.7 L 498.1 26.3 L 496.1 30.0 L 494.5 32.1 L 494.5 31.1 L 494.3 29.8 L 493.9 28.1 L 493.1 26.2 L 491.7 24.9 L 489.6 23.6 L 487.1 23.2 L 484.4 23.5 L 482.1 23.9 L 479.3 25.1 L 475.9 27.7 L 474.8 29.4 L 473.6 32.2 L 472.6 35.9 L 472.2 42.6 L 472.3 46.8 L 472.5 48.8 L 472.5 52.1 L 472.2 55.6 L 471.5 59.1 L 470.0 61.5 L 466.5 65.1 L 463.0 67.9 L 449.7 75.9 L 445.1 80.1 L 443.7 83.5 L 444.0 86.5 L 444.9 88.0 L 447.9 88.4 L 451.5 88.1 L 456.7 87.4 L 462.3 86.0 L 466.7 84.5 L 472.0 82.9 L 476.5 80.5 L 479.8 77.3 L 482.3 74.2 L 483.7 72.2 L 485.9 71.6 L 487.7 71.4 L 490.2 71.7 L 490.5 71.6 L 491.7 69.7 L 492.7 68.8 L 494.3 68.1 L 496.5 67.4 L 499.3 67.4 L 502.3 68.4 L 504.6 70.6 L 505.7 74.5 L 506.1 78.0 L 505.8 84.4 L 504.9 87.7 L 502.5 91.7 L 500.3 95.9 L 489.0 106.4 L 481.1 112.3 L 475.9 115.9 L 471.4 119.4 L 463.7 122.7 L 450.2 127.7 L 442.2 132.2 L 431.7 136.9 L 418.2 138.3 L 407.5 137.1 L 398.3 132.9 L 391.1 128.2 L 379.5 131.4 L 357.2 136.0 L 326.2 141.0 L 301.0 140.5 L 274.3 137.1 L 246.5 135.7 L 247.0 148.4 L 194.8 135.1 L 175.6 128.8 L 166.6 124.7 L 160.1 122.2 L 158.0 118.5 L 153.6 108.0 L 151.1 101.0 L 148.9 93.8 L 147.0 86.4 L 146.3 79.1 L 146.7 70.7 L 147.4 64.0 L 147.1 55.4 L 147.1 46.3 L 148.8 38.8 L 150.9 33.1 L 154.3 25.6 L 158.2 18.1 L 162.7 10.0 L 498.2 10.0 L 498.6 10.8 z M 362.0 31.9 L 360.0 35.5 L 359.6 39.8 L 360.3 46.2 L 360.2 54.3 L 358.6 58.0 L 356.9 60.4 L 355.6 63.4 L 355.4 67.3 L 357.2 70.8 L 362.0 74.2 L 368.3 76.0 L 374.7 76.9 L 380.6 77.9 L 386.7 78.0 L 391.7 77.4 L 395.7 77.2 L 397.7 78.9 L 397.0 85.6 L 391.8 89.2 L 385.5 90.2 L 376.1 94.1 L 369.7 95.3 L 365.1 95.1 L 358.5 93.5 L 353.3 92.1 L 349.3 93.1 L 347.5 95.6 L 347.3 98.9 L 349.2 102.9 L 352.9 107.0 L 356.7 108.9 L 361.3 109.2 L 372.4 107.5 L 376.8 105.0 L 383.7 101.5 L 389.0 98.9 L 393.5 96.1 L 400.7 90.9 L 402.7 88.7 L 405.2 85.9 L 410.0 82.2 L 420.4 78.7 L 422.9 77.5 L 424.6 76.2 L 429.1 69.6 L 432.9 67.4 L 435.0 67.2 L 437.5 66.6 L 438.8 65.2 L 439.6 61.7 L 439.4 59.9 L 437.2 58.3 L 431.0 58.4 L 423.7 59.6 L 416.2 60.5 L 410.5 59.8 L 405.9 57.6 L 401.0 54.3 L 398.3 51.9 L 394.7 49.2 L 390.2 47.8 L 385.7 48.0 L 382.6 48.7 L 380.6 47.7 L 379.2 45.9 L 378.5 43.7 L 376.4 39.7 L 373.8 35.7 L 370.9 32.4 L 367.8 30.4 L 364.8 30.2 L 362.0 31.9 z M 317.0 18.7 L 314.8 20.3 L 313.6 21.6 L 309.7 28.3 L 309.1 30.6 L 309.4 34.0 L 311.3 38.5 L 313.8 41.5 L 317.5 44.5 L 322.0 47.5 L 324.9 49.3 L 327.2 52.8 L 327.0 54.7 L 326.1 55.4 L 320.2 57.5 L 318.4 59.9 L 318.6 61.9 L 320.9 65.1 L 324.0 67.6 L 328.2 69.0 L 332.3 68.9 L 334.7 68.0 L 336.3 65.9 L 336.6 63.8 L 336.5 60.9 L 336.6 57.6 L 337.7 56.0 L 339.2 56.0 L 341.3 56.7 L 343.3 56.7 L 345.8 55.8 L 348.1 53.4 L 348.5 51.4 L 347.6 47.1 L 346.5 45.0 L 343.2 41.7 L 339.0 39.9 L 335.1 37.9 L 331.8 34.2 L 325.7 24.3 L 323.1 20.5 L 321.5 19.4 L 320.3 18.7 L 319.2 18.3 L 317.0 18.7 z M 122.9 14.8 L 118.8 20.1 L 115.9 23.3 L 112.6 26.5 L 107.4 32.3 L 103.7 36.9 L 99.4 42.7 L 94.9 49.7 L 90.9 57.7 L 87.5 64.9 L 85.4 70.9 L 84.1 77.6 L 84.3 84.1 L 85.6 92.3 L 87.0 98.5 L 90.8 112.2 L 96.1 124.7 L 100.0 132.5 L 104.7 138.7 L 113.7 149.8 L 118.3 156.0 L 123.9 164.1 L 129.5 170.7 L 134.8 176.7 L 140.9 182.5 L 147.0 186.8 L 153.7 190.6 L 160.1 193.6 L 167.0 195.8 L 173.0 198.0 L 186.0 201.4 L 193.9 203.2 L 202.8 204.2 L 209.1 204.7 L 215.8 206.5 L 222.8 210.2 L 227.3 213.8 L 234.2 218.3 L 237.2 221.7 L 236.8 224.0 L 233.9 224.2 L 226.7 221.4 L 223.1 219.6 L 217.0 217.1 L 215.6 216.4 L 212.6 215.2 L 207.0 213.4 L 196.2 212.4 L 190.1 211.5 L 184.2 210.6 L 178.8 209.6 L 172.4 208.1 L 166.7 206.0 L 162.1 203.5 L 157.2 200.0 L 151.6 197.1 L 148.3 196.3 L 143.8 194.5 L 140.0 192.3 L 135.7 189.5 L 130.4 185.1 L 125.8 180.6 L 121.0 175.4 L 116.7 170.5 L 103.5 154.3 L 100.5 149.3 L 96.9 142.6 L 94.4 138.5 L 90.4 134.1 L 87.2 128.1 L 86.5 123.4 L 85.6 116.7 L 84.0 109.5 L 81.9 104.0 L 77.9 95.2 L 76.3 89.0 L 74.5 78.7 L 75.2 71.6 L 76.9 68.1 L 80.6 62.5 L 83.0 55.6 L 88.3 36.4 L 90.9 30.1 L 96.4 19.9 L 100.5 14.6 L 104.2 11.0 L 105.6 10.0 L 125.9 10.0 L 122.9 14.8 z M 460.8 338.3 L 463.6 341.7 L 464.6 343.2 L 467.4 345.9 L 471.0 348.7 L 475.9 351.6 L 479.9 353.7 L 485.0 356.1 L 490.8 357.9 L 498.0 358.6 L 504.7 358.4 L 512.6 357.5 L 520.5 355.8 L 526.1 354.8 L 532.8 354.4 L 538.9 354.6 L 547.4 357.5 L 551.2 360.4 L 563.8 369.7 L 568.6 372.1 L 575.2 373.2 L 582.7 372.7 L 590.1 372.4 L 598.0 372.4 L 606.9 372.9 L 618.4 373.5 L 636.2 376.1 L 645.4 377.9 L 654.6 380.3 L 659.8 382.0 L 666.8 381.5 L 668.9 384.8 L 670.4 388.6 L 671.9 389.3 L 668.8 394.3 L 673.3 398.2 L 676.0 402.2 L 674.2 403.1 L 672.7 403.5 L 671.2 403.4 L 669.1 404.5 L 665.3 407.9 L 659.7 402.0 L 656.9 400.8 L 654.0 398.5 L 651.0 397.1 L 646.5 393.7 L 641.9 390.7 L 628.6 387.6 L 622.8 387.1 L 616.6 387.2 L 609.4 387.7 L 607.0 387.7 L 602.0 387.6 L 596.2 387.0 L 589.2 385.4 L 584.3 384.1 L 577.6 382.0 L 570.9 380.9 L 564.2 380.0 L 557.1 378.6 L 549.3 376.6 L 542.1 373.8 L 535.4 369.7 L 530.8 363.3 L 526.5 360.9 L 511.9 361.1 L 504.3 361.3 L 488.2 360.8 L 479.5 358.9 L 473.5 355.9 L 467.3 351.8 L 462.6 348.5 L 459.5 344.7 L 454.9 339.4 L 459.8 336.7 L 460.8 338.3 z M 104.2 11.0 L 100.5 14.6 L 96.4 19.9 L 90.9 30.1 L 88.3 36.4 L 83.0 55.6 L 80.6 62.5 L 76.9 68.1 L 75.2 71.6 L 74.5 78.7 L 76.3 89.0 L 77.9 95.2 L 81.9 104.0 L 84.0 109.5 L 85.6 116.7 L 86.5 123.4 L 87.2 128.1 L 90.4 134.1 L 94.4 138.5 L 96.9 142.6 L 100.5 149.3 L 103.5 154.3 L 116.7 170.5 L 121.0 175.4 L 125.8 180.6 L 130.4 185.1 L 135.7 189.5 L 140.0 192.3 L 143.8 194.5 L 148.3 196.3 L 151.6 197.1 L 157.2 200.0 L 162.1 203.5 L 166.7 206.0 L 172.4 208.1 L 178.8 209.6 L 184.2 210.6 L 190.1 211.5 L 196.2 212.4 L 207.0 213.4 L 212.6 215.2 L 215.6 216.4 L 217.0 217.1 L 223.1 219.6 L 226.7 221.4 L 233.9 224.2 L 236.8 224.0 L 237.2 221.7 L 234.2 218.3 L 227.3 213.8 L 222.8 210.2 L 215.8 206.5 L 209.1 204.7 L 202.8 204.2 L 193.9 203.2 L 186.0 201.4 L 173.0 198.0 L 167.0 195.8 L 160.1 193.6 L 153.7 190.6 L 147.0 186.8 L 140.9 182.5 L 134.8 176.7 L 129.5 170.7 L 123.9 164.1 L 118.3 156.0 L 113.7 149.8 L 104.7 138.7 L 100.0 132.5 L 96.1 124.7 L 90.8 112.2 L 87.0 98.5 L 85.6 92.3 L 84.3 84.1 L 84.1 77.6 L 85.4 70.9 L 87.5 64.9 L 90.9 57.7 L 94.9 49.7 L 99.4 42.7 L 103.7 36.9 L 107.4 32.3 L 112.6 26.5 L 115.9 23.3 L 118.8 20.1 L 122.9 14.8 L 125.9 10.0 L 162.7 10.0 L 158.2 18.1 L 154.3 25.6 L 150.9 33.1 L 148.8 38.8 L 147.1 46.3 L 147.1 55.4 L 147.4 64.0 L 146.7 70.7 L 146.3 79.1 L 147.0 86.4 L 148.9 93.8 L 151.1 101.0 L 153.6 108.0 L 158.0 118.5 L 160.1 122.2 L 162.9 127.0 L 166.8 133.1 L 172.2 139.1 L 179.8 146.2 L 186.2 150.7 L 193.3 155.5 L 206.8 161.2 L 216.9 163.7 L 226.1 166.7 L 228.7 168.1 L 232.1 169.4 L 236.2 171.7 L 240.2 174.2 L 244.6 176.4 L 257.0 181.8 L 276.3 185.1 L 285.3 184.6 L 293.2 182.0 L 302.2 178.7 L 311.4 175.6 L 320.9 173.8 L 338.2 172.6 L 345.5 171.7 L 360.0 167.1 L 370.3 164.4 L 380.2 163.4 L 402.2 162.9 L 414.3 161.6 L 422.2 159.4 L 430.3 155.2 L 439.3 152.9 L 448.5 150.1 L 457.4 146.5 L 466.2 141.1 L 471.5 137.0 L 478.8 130.0 L 484.7 123.2 L 489.8 115.1 L 500.3 95.9 L 502.5 91.7 L 504.9 87.7 L 505.8 84.4 L 506.1 78.0 L 505.7 74.5 L 504.6 70.6 L 502.3 68.4 L 499.3 67.4 L 496.5 67.4 L 494.3 68.1 L 492.7 68.8 L 491.7 69.7 L 492.2 66.1 L 493.3 61.1 L 494.2 55.8 L 495.3 51.2 L 496.3 47.5 L 497.0 43.9 L 497.1 40.9 L 496.9 39.3 L 496.0 37.7 L 495.4 36.8 L 495.3 36.8 L 494.5 32.1 L 496.1 30.0 L 498.1 26.3 L 498.9 22.7 L 499.1 18.6 L 499.1 15.1 L 498.6 10.8 L 498.2 10.0 L 570.7 10.0 L 571.0 13.0 L 571.4 18.7 L 571.4 24.4 L 571.2 29.8 L 571.5 35.9 L 571.9 40.0 L 572.4 42.7 L 574.6 51.0 L 579.2 63.7 L 580.1 71.6 L 581.5 77.8 L 583.7 77.8 L 585.0 72.5 L 589.0 60.6 L 591.2 45.5 L 592.1 34.9 L 589.9 21.2 L 589.9 10.0 L 602.0 10.0 L 601.3 18.4 L 600.9 34.0 L 600.9 52.9 L 598.7 67.0 L 594.8 82.5 L 591.8 87.5 L 584.8 99.2 L 573.9 109.6 L 561.4 122.1 L 541.4 138.8 L 524.3 150.5 L 504.7 160.5 L 485.5 169.0 L 484.1 169.5 L 482.3 170.3 L 472.0 173.5 L 448.5 180.3 L 429.6 185.3 L 415.4 189.3 L 401.2 193.0 L 390.4 195.5 L 371.1 201.6 L 356.7 205.1 L 335.2 210.5 L 317.9 215.3 L 309.7 217.4 L 301.9 219.0 L 293.8 220.5 L 285.5 222.9 L 277.6 226.2 L 270.7 229.7 L 260.2 234.6 L 245.2 240.8 L 241.7 241.9 L 239.8 242.2 L 240.8 240.5 L 242.9 237.2 L 239.1 238.0 L 236.7 237.5 L 234.7 238.0 L 231.9 238.4 L 229.3 238.6 L 225.5 238.5 L 215.5 237.1 L 210.3 235.6 L 198.6 231.0 L 184.4 224.1 L 164.4 213.8 L 153.5 210.0 L 142.0 207.0 L 136.8 213.7 L 132.3 209.8 L 128.1 205.1 L 119.1 193.7 L 117.7 191.3 L 116.6 188.8 L 115.7 186.0 L 115.6 182.3 L 115.9 180.2 L 112.0 184.9 L 105.1 174.7 L 101.6 169.9 L 100.7 168.5 L 97.9 171.5 L 91.0 162.4 L 86.1 155.6 L 81.4 148.3 L 75.8 140.9 L 65.4 126.4 L 60.6 120.0 L 56.5 112.4 L 52.8 103.2 L 51.3 94.9 L 50.8 88.1 L 51.1 79.5 L 52.3 69.7 L 54.2 60.1 L 57.2 49.7 L 61.0 42.2 L 65.3 37.0 L 69.7 33.5 L 74.0 29.5 L 76.0 26.5 L 77.6 24.9 L 82.9 17.5 L 86.6 10.0 L 105.6 10.0 L 104.2 11.0 z M 237.4 479.0 L 245.0 479.0 L 256.4 479.0 L 269.0 479.0 L 290.6 479.0 L 293.3 479.0 L 291.9 481.5 L 297.2 481.1 L 307.0 482.3 L 321.8 485.6 L 332.8 488.9 L 343.9 496.3 L 348.0 502.8 L 350.0 508.5 L 354.1 513.0 L 358.6 514.3 L 366.4 513.0 L 375.8 513.4 L 383.6 515.5 L 395.9 520.4 L 404.0 523.3 L 418.8 530.6 L 429.4 536.8 L 445.4 549.5 L 449.1 555.6 L 452.8 563.4 L 457.3 573.6 L 460.1 583.5 L 460.5 590.8 L 464.6 598.6 L 469.1 604.3 L 471.6 608.0 L 472.8 616.2 L 473.2 626.8 L 474.9 636.7 L 476.9 642.8 L 479.8 647.3 L 484.1 651.0 L 485.1 651.8 L 489.2 655.9 L 491.7 664.1 L 491.7 671.9 L 494.9 685.0 L 497.4 691.9 L 505.6 698.9 L 510.9 701.8 L 519.5 703.0 L 525.6 705.5 L 529.7 709.1 L 531.8 715.3 L 533.0 718.6 L 537.9 722.7 L 544.1 726.3 L 549.4 728.0 L 558.0 730.8 L 563.7 733.7 L 565.3 738.6 L 564.1 743.5 L 561.3 747.2 L 557.6 751.3 L 555.1 756.6 L 551.4 762.0 L 542.8 771.0 L 535.1 776.7 L 524.8 780.0 L 512.9 782.8 L 501.9 784.9 L 488.0 789.8 L 476.5 792.2 L 461.4 795.1 L 449.1 799.6 L 442.1 802.9 L 433.1 805.8 L 421.2 804.1 L 413.5 801.3 L 405.7 798.0 L 400.0 793.5 L 393.4 786.9 L 387.7 783.2 L 380.3 781.6 L 372.9 779.1 L 361.9 771.8 L 351.6 766.1 L 334.9 762.8 L 314.8 763.6 L 300.1 762.0 L 289.4 762.0 L 273.9 758.7 L 262.0 755.4 L 252.2 751.7 L 245.6 745.2 L 242.7 739.0 L 244.0 732.9 L 246.8 725.9 L 250.9 716.5 L 251.3 707.5 L 245.2 702.6 L 241.5 698.9 L 241.9 694.0 L 243.6 689.1 L 241.9 682.5 L 237.4 676.8 L 232.1 673.5 L 223.5 671.5 L 212.0 669.0 L 195.7 664.5 L 185.4 660.4 L 176.4 657.1 L 167.7 651.7 L 166.6 651.0 L 156.8 642.8 L 146.5 635.0 L 129.7 626.0 L 110.1 620.7 L 95.4 618.2 L 81.8 615.0 L 64.0 610.2 L 70.6 609.3 L 79.9 610.6 L 82.2 610.9 L 97.3 613.5 L 105.6 614.9 L 113.2 616.5 L 131.2 620.3 L 137.7 624.7 L 143.2 628.6 L 148.9 631.5 L 151.8 630.4 L 152.0 630.7 L 154.0 631.6 L 156.6 633.7 L 159.6 637.0 L 162.2 637.6 L 165.6 638.0 L 169.2 639.4 L 171.7 642.4 L 174.8 648.1 L 177.7 651.7 L 178.0 652.0 L 182.6 655.1 L 188.6 657.7 L 195.3 659.4 L 202.2 659.8 L 208.8 659.7 L 216.3 660.1 L 222.3 661.1 L 228.1 662.8 L 234.1 664.4 L 241.7 668.1 L 247.6 672.9 L 251.0 678.6 L 251.6 681.9 L 251.1 684.7 L 249.1 687.5 L 246.0 690.7 L 244.4 693.9 L 244.2 695.7 L 244.3 696.2 L 244.5 696.6 L 245.1 697.2 L 246.4 697.7 L 251.9 698.7 L 253.1 699.1 L 256.5 700.6 L 257.8 701.1 L 260.2 701.5 L 262.6 701.7 L 263.2 701.8 L 263.7 702.1 L 263.9 702.6 L 263.9 703.1 L 263.8 703.8 L 263.3 704.8 L 261.9 706.3 L 258.3 709.3 L 257.7 710.3 L 257.5 710.8 L 257.6 712.1 L 257.8 713.0 L 258.2 713.9 L 260.1 716.0 L 261.5 720.0 L 261.2 725.1 L 258.8 730.6 L 257.4 735.0 L 257.6 738.9 L 260.4 742.3 L 265.6 744.8 L 269.7 745.3 L 274.8 742.5 L 277.7 742.3 L 279.0 743.2 L 279.5 746.6 L 278.8 749.1 L 285.9 754.7 L 292.0 755.7 L 300.2 756.3 L 311.5 756.3 L 322.9 756.0 L 339.4 756.3 L 356.7 754.7 L 364.6 754.4 L 371.0 755.5 L 374.6 759.5 L 374.9 762.0 L 376.3 765.7 L 381.8 769.0 L 387.4 770.9 L 392.8 773.0 L 398.4 775.7 L 402.9 778.8 L 405.4 781.4 L 406.2 783.5 L 406.9 786.4 L 407.1 788.7 L 407.1 789.9 L 410.2 795.3 L 413.9 797.9 L 421.7 801.6 L 428.0 803.2 L 434.3 802.7 L 442.1 797.9 L 448.4 793.8 L 458.9 790.1 L 467.2 789.1 L 476.6 788.5 L 485.0 784.4 L 494.4 780.2 L 501.2 778.6 L 513.2 777.6 L 522.6 775.5 L 529.4 772.9 L 535.7 769.2 L 541.4 764.5 L 547.2 756.7 L 547.4 755.2 L 547.4 754.0 L 546.8 752.2 L 546.1 749.9 L 546.8 748.3 L 548.9 745.9 L 552.4 743.9 L 554.4 741.3 L 554.3 739.1 L 553.0 736.6 L 552.5 736.0 L 548.4 734.3 L 543.7 733.6 L 539.6 731.9 L 535.5 728.9 L 530.2 725.8 L 525.1 721.5 L 523.0 717.6 L 522.2 713.2 L 520.0 708.5 L 517.4 708.2 L 513.2 709.2 L 509.0 709.1 L 504.7 707.9 L 492.2 700.4 L 487.4 694.4 L 484.6 687.7 L 483.9 682.5 L 484.3 676.0 L 485.4 668.8 L 485.0 662.2 L 483.6 658.7 L 477.9 657.2 L 472.4 660.5 L 463.0 664.6 L 451.0 671.4 L 446.8 672.0 L 445.3 669.3 L 448.9 665.2 L 454.7 659.4 L 461.5 651.0 L 461.5 651.0 L 463.6 643.7 L 465.6 632.7 L 465.6 621.2 L 464.6 608.7 L 461.5 606.1 L 457.8 604.0 L 454.1 598.8 L 452.6 593.5 L 453.6 583.1 L 451.5 573.7 L 448.4 565.3 L 443.7 556.9 L 435.8 549.1 L 429.6 543.3 L 419.1 537.6 L 411.3 531.3 L 400.8 527.7 L 389.3 523.0 L 381.5 520.3 L 366.3 521.9 L 361.1 523.0 L 354.3 522.4 L 348.5 519.3 L 344.4 513.0 L 342.3 506.8 L 337.0 499.4 L 331.8 495.3 L 324.5 491.1 L 309.9 487.9 L 299.9 486.4 L 292.1 484.8 L 289.6 485.5 L 285.0 490.4 L 280.1 488.5 L 261.2 484.8 L 246.1 484.8 L 234.6 484.3 L 226.7 483.8 L 220.5 482.2 L 214.2 480.9 L 216.9 478.0 L 237.4 479.0 z M 93.2 692.8 L 97.3 697.8 L 100.5 701.0 L 102.8 704.0 L 104.5 707.4 L 106.9 715.0 L 108.6 722.8 L 110.0 730.7 L 111.2 738.5 L 111.9 745.8 L 112.3 752.4 L 113.7 759.7 L 118.9 772.6 L 119.4 775.9 L 120.3 791.9 L 121.4 800.5 L 122.4 810.0 L 81.8 810.0 L 82.4 808.0 L 83.5 802.9 L 85.8 799.1 L 86.0 794.9 L 85.7 790.1 L 90.0 785.7 L 96.7 779.2 L 97.1 772.0 L 96.5 768.6 L 90.7 760.7 L 88.2 755.8 L 85.2 745.1 L 84.1 739.3 L 82.3 732.0 L 80.5 726.2 L 81.4 717.2 L 80.9 714.5 L 80.8 707.9 L 80.8 703.1 L 80.9 701.8 L 91.2 691.0 L 93.2 692.8 z M 119.1 667.7 L 122.0 670.2 L 125.2 672.1 L 127.9 675.3 L 130.4 680.1 L 133.4 687.2 L 133.5 693.0 L 133.3 697.3 L 133.8 702.9 L 135.3 709.2 L 138.6 716.0 L 140.3 721.7 L 139.6 727.8 L 136.9 736.6 L 140.8 748.8 L 144.6 752.9 L 147.6 757.0 L 149.5 761.2 L 151.0 766.0 L 151.7 768.7 L 151.7 772.1 L 153.0 780.4 L 153.0 786.0 L 152.4 790.3 L 151.6 794.6 L 151.3 797.1 L 151.3 799.4 L 153.1 800.6 L 157.1 800.2 L 159.7 799.7 L 162.4 801.4 L 164.2 805.5 L 165.1 809.0 L 164.8 810.0 L 132.4 810.0 L 133.6 801.9 L 135.0 794.6 L 137.4 787.3 L 139.5 779.3 L 140.2 774.4 L 140.6 768.1 L 139.1 762.4 L 136.2 756.2 L 132.1 749.9 L 128.9 744.2 L 125.8 736.2 L 123.4 726.2 L 121.3 716.5 L 117.6 704.5 L 113.7 695.9 L 109.5 688.2 L 105.2 680.7 L 102.3 677.7 L 115.7 665.0 L 119.1 667.7 z M 496.0 37.7 L 496.9 39.3 L 497.1 40.9 L 497.0 43.9 L 496.3 47.5 L 495.3 51.2 L 494.2 55.8 L 493.3 61.1 L 492.2 66.1 L 491.7 69.7 L 490.5 71.6 L 490.2 71.7 L 487.7 71.4 L 485.9 71.6 L 483.7 72.2 L 483.3 71.3 L 483.1 70.1 L 483.3 62.7 L 483.9 59.1 L 486.1 51.6 L 487.9 47.1 L 491.0 42.6 L 495.3 36.8 L 495.4 36.8 L 496.0 37.7 z M 589.9 21.2 L 592.1 34.9 L 591.2 45.5 L 589.0 60.6 L 585.0 72.5 L 583.7 77.8 L 581.5 77.8 L 580.1 71.6 L 579.2 63.7 L 574.6 51.0 L 572.4 42.7 L 571.9 40.0 L 571.5 35.9 L 571.2 29.8 L 571.4 24.4 L 571.4 18.7 L 571.0 13.0 L 570.7 10.0 L 589.9 10.0 L 589.9 21.2 z M 785.4 198.2 L 795.8 199.1 L 795.8 207.3 L 781.5 206.8 L 774.3 206.3 L 762.0 204.8 L 755.9 204.3 L 751.0 204.1 L 747.4 204.3 L 744.4 204.6 L 741.5 205.3 L 731.5 208.1 L 726.2 209.4 L 711.4 212.4 L 707.9 213.4 L 698.0 216.9 L 694.5 217.9 L 689.7 218.9 L 669.0 224.9 L 657.4 230.6 L 630.2 242.5 L 625.1 245.2 L 620.6 248.5 L 606.5 256.0 L 606.5 256.0 L 600.5 259.2 L 593.7 262.9 L 587.4 264.3 L 581.7 267.3 L 576.6 272.4 L 574.5 276.3 L 576.3 281.1 L 578.7 284.4 L 581.4 287.1 L 587.4 290.4 L 593.6 291.1 L 600.3 291.8 L 606.6 292.5 L 606.6 292.5 L 622.4 295.4 L 629.0 296.9 L 634.9 299.3 L 641.8 300.5 L 645.4 301.0 L 654.4 299.1 L 660.7 298.2 L 667.7 297.4 L 676.3 296.7 L 685.9 296.7 L 694.4 296.4 L 703.5 295.7 L 711.2 295.5 L 720.8 295.7 L 730.6 296.3 L 740.0 297.3 L 750.0 300.1 L 760.0 303.8 L 762.9 304.6 L 765.9 305.2 L 768.9 305.5 L 771.3 305.6 L 773.7 305.4 L 775.4 305.1 L 781.1 303.5 L 784.1 302.9 L 786.5 302.6 L 788.9 302.6 L 791.9 302.9 L 795.8 303.6 L 795.8 311.0 L 793.4 311.0 L 784.5 312.8 L 773.5 314.6 L 767.7 314.1 L 760.2 313.1 L 755.0 310.4 L 750.8 309.2 L 746.2 308.2 L 731.3 303.8 L 721.6 302.0 L 712.8 301.3 L 704.8 301.4 L 695.3 301.7 L 679.6 302.3 L 670.6 303.7 L 660.9 304.9 L 649.0 305.8 L 643.9 305.3 L 634.3 303.8 L 625.7 302.0 L 617.6 299.0 L 607.7 297.8 L 606.7 297.7 L 600.6 296.6 L 593.1 296.0 L 585.0 294.3 L 578.7 291.6 L 570.6 288.6 L 568.0 287.1 L 566.2 284.4 L 565.3 282.0 L 564.4 279.0 L 565.9 274.5 L 568.6 270.3 L 573.3 265.5 L 580.2 261.1 L 589.2 258.1 L 595.5 255.1 L 603.2 251.2 L 606.5 249.0 L 608.9 247.3 L 618.5 243.7 L 622.4 241.3 L 627.2 238.6 L 638.8 231.8 L 644.2 228.8 L 651.7 224.9 L 657.7 222.2 L 665.1 220.4 L 673.5 215.9 L 682.2 213.8 L 686.1 212.3 L 692.1 211.5 L 711.5 206.6 L 729.7 200.9 L 739.7 199.6 L 754.9 197.8 L 767.3 196.9 L 785.4 198.2 z M 18.7 477.6 L 23.8 478.0 L 28.7 478.8 L 32.7 479.0 L 40.2 479.8 L 42.4 480.4 L 39.3 485.9 L 51.1 489.3 L 61.0 491.7 L 75.0 493.5 L 98.3 496.5 L 115.2 499.8 L 132.0 500.9 L 154.3 504.2 L 170.8 506.8 L 184.7 506.8 L 192.7 508.6 L 198.6 508.6 L 207.7 510.1 L 229.3 514.8 L 236.3 517.4 L 244.7 519.6 L 254.9 521.6 L 257.0 519.5 L 261.6 521.8 L 281.3 529.7 L 291.1 533.4 L 300.0 539.2 L 307.8 546.0 L 317.0 551.4 L 331.9 557.2 L 345.5 560.6 L 360.1 563.6 L 366.5 566.0 L 373.7 571.4 L 377.1 574.8 L 386.2 581.3 L 393.0 587.4 L 400.2 596.2 L 402.2 605.4 L 401.9 613.5 L 399.5 620.0 L 393.7 630.2 L 388.6 633.2 L 371.0 640.7 L 358.4 643.1 L 347.2 645.8 L 330.9 647.5 L 317.6 646.2 L 308.1 642.1 L 287.8 634.3 L 271.1 629.8 L 254.1 625.1 L 239.5 620.3 L 228.7 617.3 L 214.1 613.9 L 201.7 609.0 L 187.6 605.5 L 174.8 602.8 L 162.4 601.5 L 151.3 597.5 L 139.8 596.2 L 123.9 594.9 L 116.4 593.1 L 103.1 589.6 L 89.8 587.3 L 77.0 584.3 L 62.8 582.9 L 46.8 581.7 L 42.3 581.6 L 31.5 580.1 L 24.7 579.0 L 16.5 577.5 L 10.7 576.2 L 10.0 576.0 L 10.0 556.1 L 13.7 556.8 L 23.0 558.2 L 29.8 559.7 L 36.7 562.0 L 51.2 566.4 L 57.9 568.0 L 76.5 570.1 L 93.5 571.4 L 116.2 576.2 L 129.5 579.6 L 143.4 582.6 L 159.0 584.3 L 179.1 589.1 L 201.5 593.8 L 220.2 598.9 L 241.9 602.3 L 258.2 605.1 L 271.1 609.1 L 294.9 618.0 L 304.7 620.7 L 314.2 624.1 L 319.7 625.1 L 326.8 625.4 L 342.1 625.1 L 350.2 625.1 L 356.4 624.1 L 360.4 621.0 L 361.8 615.2 L 359.4 611.2 L 349.9 604.4 L 345.5 601.7 L 341.8 597.9 L 339.0 593.8 L 337.0 585.0 L 335.0 582.0 L 331.6 579.9 L 329.2 579.2 L 323.7 577.2 L 318.7 574.8 L 309.1 570.1 L 303.0 565.7 L 291.8 559.2 L 286.7 555.1 L 281.1 551.7 L 278.4 550.6 L 266.2 547.6 L 256.7 543.2 L 246.8 538.1 L 245.8 535.3 L 241.4 533.1 L 238.1 532.8 L 227.8 530.9 L 201.9 525.1 L 183.2 522.5 L 167.1 522.5 L 139.7 518.9 L 126.9 517.4 L 111.5 513.7 L 98.6 511.7 L 86.7 508.9 L 73.8 507.6 L 65.3 506.2 L 54.8 503.5 L 42.9 500.8 L 33.3 498.4 L 29.7 497.5 L 31.7 494.9 L 38.3 487.6 L 33.1 486.0 L 25.9 484.5 L 19.3 484.3 L 10.9 485.0 L 10.0 485.2 L 10.0 477.3 L 18.7 477.6 z M 33.3 498.4 L 42.9 500.8 L 54.8 503.5 L 65.3 506.2 L 73.8 507.6 L 86.7 508.9 L 98.6 511.7 L 111.5 513.7 L 126.9 517.4 L 139.7 518.9 L 167.1 522.5 L 183.2 522.5 L 201.9 525.1 L 227.8 530.9 L 238.1 532.8 L 241.4 533.1 L 245.8 535.3 L 246.8 538.1 L 256.7 543.2 L 266.2 547.6 L 278.4 550.6 L 281.1 551.7 L 286.7 555.1 L 291.8 559.2 L 303.0 565.7 L 309.1 570.1 L 318.7 574.8 L 323.7 577.2 L 329.2 579.2 L 331.6 579.9 L 335.0 582.0 L 337.0 585.0 L 339.0 593.8 L 341.8 597.9 L 345.5 601.7 L 349.9 604.4 L 359.4 611.2 L 361.8 615.2 L 360.4 621.0 L 356.4 624.1 L 350.2 625.1 L 342.1 625.1 L 326.8 625.4 L 319.7 625.1 L 314.2 624.1 L 304.7 620.7 L 294.9 618.0 L 271.1 609.1 L 258.2 605.1 L 241.9 602.3 L 220.2 598.9 L 201.5 593.8 L 179.1 589.1 L 159.0 584.3 L 143.4 582.6 L 129.5 579.6 L 116.2 576.2 L 93.5 571.4 L 76.5 570.1 L 57.9 568.0 L 51.2 566.4 L 36.7 562.0 L 29.8 559.7 L 23.0 558.2 L 13.7 556.8 L 10.0 556.1 L 10.0 547.8 L 15.0 548.7 L 29.0 551.4 L 40.8 554.1 L 50.0 556.5 L 60.5 559.5 L 70.1 560.9 L 112.2 565.7 L 153.9 573.0 L 180.6 577.0 L 197.8 580.7 L 217.6 584.3 L 238.4 587.3 L 253.8 591.7 L 272.1 594.6 L 283.1 597.2 L 291.9 597.2 L 298.5 596.1 L 301.0 593.1 L 301.4 588.7 L 300.3 583.3 L 297.4 578.9 L 277.6 567.1 L 264.1 559.8 L 252.4 554.7 L 237.4 545.2 L 223.1 538.2 L 193.4 532.0 L 169.3 530.6 L 133.4 524.7 L 100.5 518.9 L 89.1 517.4 L 81.3 516.1 L 70.4 514.4 L 51.4 510.3 L 37.4 507.6 L 24.6 504.2 L 29.7 497.5 L 33.3 498.4 z M 31.7 494.9 L 29.7 497.5 L 24.6 504.2 L 37.4 507.6 L 51.4 510.3 L 70.4 514.4 L 81.3 516.1 L 89.1 517.4 L 100.5 518.9 L 133.4 524.7 L 169.3 530.6 L 193.4 532.0 L 223.1 538.2 L 237.4 545.2 L 252.4 554.7 L 264.1 559.8 L 277.6 567.1 L 297.4 578.9 L 300.3 583.3 L 301.4 588.7 L 301.0 593.1 L 298.5 596.1 L 291.9 597.2 L 283.1 597.2 L 272.1 594.6 L 253.8 591.7 L 238.4 587.3 L 217.6 584.3 L 197.8 580.7 L 180.6 577.0 L 153.9 573.0 L 112.2 565.7 L 70.1 560.9 L 60.5 559.5 L 50.0 556.5 L 40.8 554.1 L 29.0 551.4 L 15.0 548.7 L 10.0 547.8 L 10.0 495.4 L 15.0 494.3 L 26.6 494.0 L 31.7 494.9 z M 49.6 412.0 L 55.0 418.2 L 59.3 422.3 L 63.9 425.1 L 71.0 428.6 L 69.6 432.1 L 74.8 435.8 L 79.5 439.1 L 85.6 442.7 L 93.9 446.2 L 99.8 448.1 L 106.3 449.6 L 112.0 450.0 L 118.4 450.3 L 121.4 450.3 L 131.7 449.2 L 137.3 449.5 L 141.3 451.2 L 145.8 453.5 L 156.8 457.1 L 157.6 457.2 L 153.2 461.6 L 139.0 457.2 L 129.9 455.3 L 120.0 455.4 L 111.3 455.7 L 101.8 454.6 L 93.1 452.7 L 85.9 449.6 L 76.1 444.7 L 67.1 438.8 L 67.8 436.6 L 68.7 434.3 L 62.1 431.8 L 56.5 428.4 L 50.1 424.2 L 41.6 416.5 L 39.9 415.1 L 46.1 407.6 L 49.6 412.0 z M 41.6 416.5 L 50.1 424.2 L 56.5 428.4 L 62.1 431.8 L 68.7 434.3 L 67.8 436.6 L 67.1 438.8 L 76.1 444.7 L 85.9 449.6 L 93.1 452.7 L 101.8 454.6 L 111.3 455.7 L 120.0 455.4 L 116.7 460.0 L 108.9 466.1 L 104.4 465.1 L 95.4 463.9 L 86.4 461.9 L 77.3 457.4 L 70.8 451.2 L 64.7 446.5 L 65.5 444.0 L 64.2 443.4 L 54.4 438.1 L 46.6 433.2 L 39.7 428.3 L 31.9 422.4 L 39.9 415.1 L 41.6 416.5 z M 39.7 428.3 L 46.6 433.2 L 54.4 438.1 L 64.2 443.4 L 65.5 444.0 L 64.7 446.5 L 70.8 451.2 L 77.3 457.4 L 86.4 461.9 L 95.4 463.9 L 104.4 465.1 L 108.9 466.1 L 116.7 460.0 L 120.0 455.4 L 129.9 455.3 L 139.0 457.2 L 153.2 461.6 L 157.6 457.2 L 161.0 457.7 L 168.5 462.2 L 175.0 464.4 L 192.4 465.6 L 206.4 467.5 L 216.1 472.6 L 192.4 471.7 L 174.4 470.6 L 155.8 469.5 L 145.9 468.6 L 142.0 471.4 L 133.8 477.7 L 121.8 474.4 L 108.0 472.2 L 90.1 469.3 L 81.8 467.5 L 76.0 465.7 L 71.6 461.4 L 66.6 456.0 L 62.7 453.0 L 63.9 449.1 L 59.3 447.5 L 53.6 447.1 L 43.4 443.4 L 27.8 434.4 L 21.9 432.3 L 22.7 431.5 L 30.0 424.0 L 31.9 422.4 L 39.7 428.3 z M 777.4 11.0 L 783.1 19.4 L 782.7 26.5 L 778.3 33.5 L 771.6 40.6 L 766.8 46.4 L 764.1 52.6 L 761.9 58.3 L 761.4 64.9 L 762.8 70.3 L 765.4 78.2 L 764.1 88.8 L 758.4 95.9 L 753.5 101.2 L 742.0 114.5 L 733.6 126.4 L 726.1 134.8 L 720.5 138.6 L 708.8 146.6 L 682.5 165.7 L 654.2 187.5 L 639.1 197.4 L 625.1 205.4 L 606.4 213.7 L 603.7 214.9 L 582.3 222.8 L 569.8 227.5 L 549.1 235.9 L 526.7 242.5 L 498.2 249.7 L 480.9 256.5 L 459.7 267.3 L 448.4 273.7 L 445.7 275.2 L 437.4 279.8 L 445.4 268.8 L 455.8 259.9 L 474.7 251.3 L 493.2 244.4 L 526.9 232.9 L 554.3 224.9 L 581.5 216.0 L 606.3 204.8 L 606.3 204.8 L 610.3 203.0 L 626.9 196.5 L 650.8 183.8 L 677.4 165.9 L 701.1 147.2 L 720.5 126.8 L 735.7 107.0 L 739.5 104.4 L 741.3 102.9 L 743.3 101.0 L 749.3 90.5 L 750.7 87.0 L 751.2 81.5 L 750.2 76.4 L 749.1 71.6 L 748.6 64.4 L 749.5 59.5 L 751.9 54.1 L 755.1 48.4 L 757.2 44.1 L 761.3 33.8 L 763.7 26.5 L 765.2 19.6 L 765.0 10.0 L 777.2 10.0 L 777.4 11.0 z M 795.8 167.6 L 795.1 167.6 L 777.4 169.6 L 770.7 170.5 L 762.1 172.0 L 752.9 174.0 L 743.6 176.4 L 733.2 179.4 L 713.6 185.6 L 700.7 189.4 L 693.8 191.5 L 686.0 194.3 L 673.2 201.2 L 664.6 204.3 L 657.0 206.3 L 650.6 209.0 L 645.7 211.5 L 640.3 214.7 L 634.3 219.0 L 628.5 221.9 L 620.2 224.4 L 613.4 225.9 L 607.5 227.9 L 606.4 228.6 L 602.2 231.4 L 594.9 238.9 L 590.9 241.0 L 584.7 242.3 L 580.8 243.4 L 577.6 244.9 L 573.7 246.0 L 562.8 250.2 L 558.8 251.5 L 543.9 257.1 L 533.9 260.4 L 525.4 262.6 L 523.3 266.3 L 521.7 274.8 L 520.9 283.3 L 520.9 289.0 L 524.2 293.7 L 529.9 296.5 L 535.2 298.7 L 541.9 301.2 L 556.6 304.2 L 564.0 304.9 L 577.5 307.9 L 598.9 310.4 L 606.7 312.5 L 615.5 314.7 L 625.9 315.3 L 640.6 315.9 L 662.1 314.7 L 676.2 315.2 L 697.7 315.9 L 715.5 319.0 L 733.3 325.1 L 750.4 328.2 L 770.1 331.2 L 793.4 332.5 L 795.8 332.4 L 795.8 352.9 L 785.0 353.6 L 775.4 354.7 L 766.8 354.0 L 747.7 351.7 L 739.8 352.5 L 734.4 350.5 L 725.5 347.5 L 718.5 344.5 L 709.6 342.0 L 701.6 339.5 L 693.6 338.5 L 685.7 336.5 L 676.2 333.6 L 666.7 332.6 L 657.3 333.0 L 630.4 331.6 L 615.9 335.5 L 606.8 335.9 L 604.5 336.0 L 595.5 335.0 L 586.1 332.1 L 580.1 329.1 L 575.6 328.1 L 570.1 326.6 L 561.7 326.1 L 546.7 326.1 L 539.8 327.1 L 533.3 327.6 L 525.8 327.1 L 517.4 325.1 L 505.4 319.1 L 500.9 316.6 L 497.4 314.1 L 495.4 312.1 L 493.4 309.7 L 488.9 315.2 L 487.6 314.2 L 485.9 310.8 L 482.2 306.9 L 473.9 301.4 L 467.5 298.6 L 463.8 297.3 L 460.0 295.5 L 456.6 292.3 L 454.8 287.7 L 454.2 282.9 L 454.4 278.0 L 455.2 275.2 L 455.9 273.4 L 456.0 273.4 L 456.8 270.6 L 459.7 267.3 L 480.9 256.5 L 498.2 249.7 L 526.7 242.5 L 549.1 235.9 L 569.8 227.5 L 582.3 222.8 L 603.7 214.9 L 606.4 213.7 L 625.1 205.4 L 639.1 197.4 L 643.8 199.5 L 648.5 199.9 L 654.6 199.0 L 660.2 196.5 L 667.7 192.0 L 690.0 176.9 L 703.5 167.4 L 712.8 161.1 L 721.9 155.5 L 726.6 152.4 L 728.7 150.9 L 731.3 148.6 L 732.1 148.2 L 741.0 141.9 L 751.8 133.8 L 756.8 129.8 L 760.9 126.0 L 764.9 122.8 L 769.2 120.0 L 772.7 118.4 L 777.2 116.7 L 780.0 114.0 L 783.0 108.5 L 785.7 102.3 L 788.3 95.7 L 789.8 90.5 L 791.5 85.2 L 793.0 78.8 L 793.8 72.4 L 795.8 67.1 L 795.8 167.6 z M 456.8 270.6 L 456.0 273.4 L 455.9 273.4 L 455.2 275.2 L 454.4 278.0 L 454.2 282.9 L 454.8 287.7 L 456.6 292.3 L 460.0 295.5 L 463.8 297.3 L 467.5 298.6 L 473.9 301.4 L 482.2 306.9 L 485.9 310.8 L 487.6 314.2 L 488.9 315.2 L 493.4 309.7 L 495.4 312.1 L 497.4 314.1 L 500.9 316.6 L 505.4 319.1 L 517.4 325.1 L 525.8 327.1 L 533.3 327.6 L 539.8 327.1 L 546.7 326.1 L 561.7 326.1 L 570.1 326.6 L 575.6 328.1 L 580.1 329.1 L 586.1 332.1 L 595.5 335.0 L 604.5 336.0 L 606.8 335.9 L 615.9 335.5 L 630.4 331.6 L 657.3 333.0 L 666.7 332.6 L 676.2 333.6 L 685.7 336.5 L 693.6 338.5 L 701.6 339.5 L 709.6 342.0 L 718.5 344.5 L 725.5 347.5 L 734.4 350.5 L 739.8 352.5 L 747.7 351.7 L 766.8 354.0 L 775.4 354.7 L 785.0 353.6 L 795.8 352.9 L 795.8 365.4 L 791.9 365.4 L 785.9 364.3 L 770.1 362.4 L 752.1 360.5 L 745.3 360.5 L 738.2 360.1 L 730.7 359.0 L 710.0 350.7 L 705.2 348.5 L 698.8 345.9 L 690.5 343.2 L 679.6 341.0 L 669.9 339.8 L 657.5 339.1 L 649.6 339.5 L 644.7 339.5 L 639.1 339.8 L 633.8 339.5 L 630.5 338.7 L 624.1 339.5 L 611.3 341.7 L 606.8 341.2 L 601.6 340.6 L 595.2 339.1 L 592.9 338.4 L 585.0 336.1 L 578.7 333.5 L 574.9 332.3 L 570.0 330.8 L 568.0 330.4 L 561.8 329.0 L 560.7 329.0 L 552.4 329.3 L 547.2 329.9 L 540.1 330.7 L 535.5 331.2 L 528.4 331.2 L 523.1 330.1 L 517.9 328.6 L 512.6 326.7 L 506.2 323.7 L 499.1 321.5 L 495.7 320.0 L 490.5 317.0 L 488.2 315.8 L 485.5 318.7 L 482.2 314.7 L 474.7 308.7 L 471.7 306.4 L 467.6 304.2 L 465.7 303.4 L 461.9 301.6 L 459.3 301.2 L 452.2 298.2 L 449.2 295.9 L 446.2 294.1 L 443.5 291.8 L 442.8 289.5 L 442.4 287.3 L 444.7 280.2 L 445.8 277.5 L 448.4 273.7 L 459.7 267.3 L 456.8 270.6 z M 795.8 199.1 L 785.4 198.2 L 767.3 196.9 L 754.9 197.8 L 739.7 199.6 L 729.7 200.9 L 711.5 206.6 L 692.1 211.5 L 686.1 212.3 L 682.2 213.8 L 673.5 215.9 L 665.1 220.4 L 657.7 222.2 L 651.7 224.9 L 644.2 228.8 L 638.8 231.8 L 627.2 238.6 L 622.4 241.3 L 618.5 243.7 L 608.9 247.3 L 606.5 249.0 L 603.2 251.2 L 595.5 255.1 L 589.2 258.1 L 580.2 261.1 L 573.3 265.5 L 568.6 270.3 L 565.9 274.5 L 564.4 279.0 L 565.3 282.0 L 566.2 284.4 L 568.0 287.1 L 570.6 288.6 L 578.7 291.6 L 585.0 294.3 L 593.1 296.0 L 600.6 296.6 L 606.7 297.7 L 607.7 297.8 L 617.6 299.0 L 625.7 302.0 L 634.3 303.8 L 643.9 305.3 L 649.0 305.8 L 660.9 304.9 L 670.6 303.7 L 679.6 302.3 L 695.3 301.7 L 704.8 301.4 L 712.8 301.3 L 721.6 302.0 L 731.3 303.8 L 746.2 308.2 L 750.8 309.2 L 755.0 310.4 L 760.2 313.1 L 767.7 314.1 L 773.5 314.6 L 784.5 312.8 L 793.4 311.0 L 795.8 311.0 L 795.8 332.4 L 793.4 332.5 L 770.1 331.2 L 750.4 328.2 L 733.3 325.1 L 715.5 319.0 L 697.7 315.9 L 676.2 315.2 L 662.1 314.7 L 640.6 315.9 L 625.9 315.3 L 615.5 314.7 L 606.7 312.5 L 598.9 310.4 L 577.5 307.9 L 564.0 304.9 L 556.6 304.2 L 541.9 301.2 L 535.2 298.7 L 529.9 296.5 L 524.2 293.7 L 520.9 289.0 L 520.9 283.3 L 521.7 274.8 L 523.3 266.3 L 525.4 262.6 L 533.9 260.4 L 543.9 257.1 L 558.8 251.5 L 562.8 250.2 L 573.7 246.0 L 577.6 244.9 L 580.8 243.4 L 584.7 242.3 L 590.9 241.0 L 594.9 238.9 L 602.2 231.4 L 606.4 228.6 L 607.5 227.9 L 613.4 225.9 L 620.2 224.4 L 628.5 221.9 L 634.3 219.0 L 640.3 214.7 L 645.7 211.5 L 650.6 209.0 L 657.0 206.3 L 664.6 204.3 L 673.2 201.2 L 686.0 194.3 L 693.8 191.5 L 700.7 189.4 L 713.6 185.6 L 733.2 179.4 L 743.6 176.4 L 752.9 174.0 L 762.1 172.0 L 770.7 170.5 L 777.4 169.6 L 795.1 167.6 L 795.8 167.6 L 795.8 199.1 z M 795.8 67.1 L 793.8 72.4 L 793.0 78.8 L 791.5 85.2 L 789.8 90.5 L 788.3 95.7 L 785.7 102.3 L 783.0 108.5 L 780.0 114.0 L 777.2 116.7 L 772.7 118.4 L 769.2 120.0 L 764.9 122.8 L 760.9 126.0 L 756.8 129.8 L 751.8 133.8 L 741.0 141.9 L 732.1 148.2 L 731.3 148.6 L 728.7 150.9 L 726.6 152.4 L 721.9 155.5 L 712.8 161.1 L 703.5 167.4 L 690.0 176.9 L 667.7 192.0 L 660.2 196.5 L 654.6 199.0 L 648.5 199.9 L 643.8 199.5 L 639.1 197.4 L 654.2 187.5 L 682.5 165.7 L 708.8 146.6 L 720.5 138.6 L 733.9 130.7 L 743.9 121.8 L 754.4 118.0 L 762.3 111.0 L 767.2 104.8 L 770.7 99.0 L 773.4 91.0 L 779.6 79.1 L 780.9 72.5 L 783.1 66.7 L 784.0 61.0 L 785.8 54.8 L 787.1 42.8 L 790.2 32.6 L 792.9 27.8 L 795.5 24.7 L 795.8 24.3 L 795.8 67.1 z M 755.9 204.3 L 762.0 204.8 L 774.3 206.3 L 781.5 206.8 L 795.8 207.3 L 795.8 217.8 L 781.3 216.1 L 774.2 215.7 L 764.6 215.8 L 744.5 217.0 L 730.8 218.2 L 721.5 219.5 L 712.3 221.3 L 705.5 223.0 L 697.8 225.6 L 681.6 232.2 L 657.6 241.3 L 649.1 244.9 L 640.8 249.0 L 629.0 255.8 L 623.9 258.3 L 619.7 260.0 L 610.6 262.5 L 606.5 264.0 L 597.3 268.7 L 592.0 270.6 L 590.1 271.7 L 589.3 272.3 L 588.7 273.1 L 588.2 274.0 L 587.9 275.0 L 587.7 276.1 L 587.7 277.2 L 587.8 278.2 L 588.2 279.1 L 588.7 280.0 L 589.4 280.7 L 591.2 281.8 L 594.3 283.1 L 599.9 284.8 L 606.6 286.4 L 606.6 286.4 L 629.1 291.9 L 634.8 292.9 L 639.4 293.3 L 642.8 293.2 L 650.9 292.0 L 654.3 291.7 L 660.0 291.9 L 662.2 291.7 L 664.4 291.2 L 665.5 290.6 L 666.5 289.9 L 667.4 289.1 L 668.2 288.1 L 668.7 286.9 L 668.9 285.7 L 668.5 282.2 L 668.5 281.3 L 668.9 280.7 L 669.6 280.3 L 670.6 280.2 L 671.8 280.3 L 672.9 280.7 L 674.6 281.6 L 679.0 285.3 L 680.9 286.7 L 683.0 287.7 L 685.3 288.4 L 689.9 289.3 L 694.6 289.7 L 700.2 289.8 L 725.4 288.2 L 733.6 288.1 L 739.4 288.5 L 744.0 289.2 L 751.8 291.1 L 762.2 293.7 L 766.9 294.5 L 770.5 294.7 L 773.9 294.5 L 782.8 293.0 L 788.6 292.3 L 793.2 292.2 L 795.8 292.4 L 795.8 303.6 L 791.9 302.9 L 788.9 302.6 L 786.5 302.6 L 784.1 302.9 L 781.1 303.5 L 775.4 305.1 L 773.7 305.4 L 771.3 305.6 L 768.9 305.5 L 765.9 305.2 L 762.9 304.6 L 760.0 303.8 L 750.0 300.1 L 740.0 297.3 L 730.6 296.3 L 720.8 295.7 L 711.2 295.5 L 703.5 295.7 L 694.4 296.4 L 685.9 296.7 L 676.3 296.7 L 667.7 297.4 L 660.7 298.2 L 654.4 299.1 L 645.4 301.0 L 641.8 300.5 L 634.9 299.3 L 629.0 296.9 L 622.4 295.4 L 606.6 292.5 L 606.6 292.5 L 600.3 291.8 L 593.6 291.1 L 587.4 290.4 L 581.4 287.1 L 578.7 284.4 L 576.3 281.1 L 574.5 276.3 L 576.6 272.4 L 581.7 267.3 L 587.4 264.3 L 593.7 262.9 L 600.5 259.2 L 606.5 256.0 L 606.5 256.0 L 620.6 248.5 L 625.1 245.2 L 630.2 242.5 L 657.4 230.6 L 669.0 224.9 L 689.7 218.9 L 694.5 217.9 L 698.0 216.9 L 707.9 213.4 L 711.4 212.4 L 726.2 209.4 L 731.5 208.1 L 741.5 205.3 L 744.4 204.6 L 747.4 204.3 L 751.0 204.1 L 755.9 204.3 z M 718.9 403.1 L 722.0 407.1 L 728.3 411.1 L 734.9 412.9 L 743.9 413.2 L 752.7 413.3 L 761.9 414.5 L 769.1 415.8 L 777.0 416.8 L 785.0 418.8 L 795.8 420.5 L 795.8 431.1 L 791.7 430.6 L 783.2 430.1 L 769.6 430.5 L 761.7 430.0 L 749.4 427.6 L 736.5 423.3 L 729.1 421.1 L 722.1 419.9 L 716.2 419.2 L 712.3 418.6 L 708.6 417.3 L 705.4 414.8 L 701.6 409.7 L 699.7 406.0 L 697.9 400.0 L 716.0 396.9 L 718.9 403.1 z M 781.3 216.1 L 795.8 217.8 L 795.8 292.4 L 793.2 292.2 L 788.6 292.3 L 782.8 293.0 L 773.9 294.5 L 770.5 294.7 L 766.9 294.5 L 762.2 293.7 L 751.8 291.1 L 744.0 289.2 L 739.4 288.5 L 733.6 288.1 L 725.4 288.2 L 700.2 289.8 L 694.6 289.7 L 689.9 289.3 L 685.3 288.4 L 683.0 287.7 L 680.9 286.7 L 679.0 285.3 L 674.6 281.6 L 672.9 280.7 L 671.8 280.3 L 670.6 280.2 L 669.6 280.3 L 668.9 280.7 L 668.5 281.3 L 668.5 282.2 L 668.9 285.7 L 668.7 286.9 L 668.2 288.1 L 667.4 289.1 L 666.5 289.9 L 665.5 290.6 L 664.4 291.2 L 662.2 291.7 L 660.0 291.9 L 654.3 291.7 L 650.9 292.0 L 642.8 293.2 L 639.4 293.3 L 634.8 292.9 L 629.1 291.9 L 606.6 286.4 L 606.6 286.4 L 599.9 284.8 L 594.3 283.1 L 591.2 281.8 L 589.4 280.7 L 588.7 280.0 L 588.2 279.1 L 587.8 278.2 L 587.7 277.2 L 587.7 276.1 L 587.9 275.0 L 588.2 274.0 L 588.7 273.1 L 589.3 272.3 L 590.1 271.7 L 592.0 270.6 L 597.3 268.7 L 606.5 264.0 L 610.6 262.5 L 619.7 260.0 L 623.9 258.3 L 629.0 255.8 L 640.8 249.0 L 649.1 244.9 L 657.6 241.3 L 681.6 232.2 L 697.8 225.6 L 705.5 223.0 L 712.3 221.3 L 721.5 219.5 L 730.8 218.2 L 744.5 217.0 L 764.6 215.8 L 774.2 215.7 L 781.3 216.1 z M 24.7 620.7 L 47.8 626.5 L 60.1 629.3 L 73.8 632.2 L 87.9 634.0 L 103.1 636.9 L 115.0 642.4 L 126.5 646.0 L 136.4 651.7 L 136.4 651.7 L 139.5 653.6 L 150.4 663.3 L 160.5 675.2 L 169.9 686.8 L 181.8 702.3 L 190.5 715.7 L 191.9 726.5 L 189.8 734.5 L 191.6 747.1 L 195.5 759.4 L 202.0 769.9 L 202.0 773.8 L 198.8 778.5 L 194.8 782.1 L 190.8 786.1 L 189.0 789.4 L 189.8 791.9 L 195.5 795.9 L 208.5 800.6 L 218.8 807.0 L 226.1 805.2 L 229.5 802.0 L 242.5 799.1 L 258.0 793.7 L 269.2 792.3 L 279.7 792.6 L 281.5 793.6 L 285.5 789.8 L 301.2 788.6 L 308.3 789.9 L 315.8 790.8 L 319.3 794.3 L 320.2 797.9 L 323.7 804.1 L 327.7 808.0 L 332.1 810.0 L 291.3 810.0 L 291.8 807.8 L 291.2 804.6 L 288.0 802.6 L 283.1 802.5 L 277.6 804.6 L 274.1 805.3 L 271.1 805.1 L 266.0 810.0 L 264.0 810.0 L 259.5 809.3 L 252.7 809.5 L 250.7 810.0 L 189.8 810.0 L 189.2 808.5 L 187.7 806.7 L 185.5 804.8 L 182.1 803.2 L 174.0 800.0 L 169.4 797.2 L 167.4 792.5 L 167.5 789.2 L 167.9 787.2 L 169.1 784.7 L 171.7 783.4 L 179.3 781.0 L 181.4 779.6 L 182.8 777.4 L 182.9 773.0 L 181.6 770.8 L 177.9 767.6 L 174.2 763.1 L 169.6 751.1 L 167.2 743.9 L 165.7 737.6 L 164.4 731.0 L 162.3 726.5 L 160.7 722.6 L 160.7 717.9 L 161.8 713.4 L 161.0 709.7 L 156.2 705.8 L 152.5 701.2 L 149.6 693.0 L 147.9 686.8 L 143.5 675.5 L 139.0 668.9 L 134.3 664.2 L 127.2 659.4 L 124.9 657.7 L 123.3 656.4 L 117.4 653.6 L 115.0 652.4 L 113.4 651.7 L 113.4 651.7 L 103.9 647.9 L 98.8 646.1 L 93.9 644.6 L 81.4 641.5 L 75.7 641.1 L 68.7 638.8 L 56.4 638.1 L 51.1 636.7 L 46.5 634.5 L 41.1 632.8 L 32.3 630.3 L 23.5 629.2 L 18.1 627.3 L 10.0 624.9 L 10.0 617.4 L 11.3 617.0 L 24.7 620.7 z M 488.3 810.0 L 457.2 810.0 L 467.5 808.9 L 488.3 810.0 z M 234.0 457.8 L 230.4 461.8 L 225.9 466.6 L 234.2 466.7 L 245.6 466.5 L 254.8 465.6 L 266.3 465.4 L 278.1 467.0 L 283.9 467.3 L 296.7 467.2 L 299.6 468.1 L 300.2 468.5 L 304.4 462.3 L 308.0 463.3 L 314.1 466.0 L 317.7 467.8 L 320.8 468.7 L 326.6 468.6 L 332.6 468.1 L 345.3 465.2 L 353.4 466.1 L 360.0 467.3 L 367.2 471.2 L 370.9 475.8 L 371.9 479.3 L 371.9 484.7 L 372.0 487.1 L 373.1 489.6 L 376.1 491.9 L 379.7 493.8 L 385.1 494.9 L 401.4 496.1 L 408.9 498.8 L 414.8 502.1 L 422.2 507.6 L 428.6 511.9 L 434.3 514.8 L 441.5 519.9 L 450.1 524.9 L 460.6 532.0 L 464.4 535.0 L 469.8 542.3 L 475.0 554.0 L 478.0 561.1 L 481.1 566.6 L 484.3 571.4 L 488.9 577.4 L 491.9 581.9 L 494.6 587.4 L 496.0 591.0 L 500.1 596.8 L 502.4 602.4 L 504.3 607.6 L 506.8 613.4 L 510.1 618.7 L 514.3 623.4 L 522.8 628.9 L 525.8 631.7 L 529.5 636.8 L 530.0 638.9 L 531.1 646.1 L 532.3 650.4 L 532.5 650.8 L 534.2 654.4 L 538.8 663.2 L 540.9 667.8 L 543.0 671.8 L 546.2 675.5 L 550.7 678.2 L 555.7 680.5 L 562.2 683.3 L 573.6 687.1 L 580.2 690.7 L 585.6 694.3 L 592.7 695.5 L 598.5 695.6 L 605.7 697.2 L 612.9 701.0 L 621.9 705.8 L 625.3 709.2 L 627.3 712.8 L 629.7 718.4 L 633.0 722.7 L 636.1 725.3 L 640.8 728.4 L 642.3 732.6 L 642.9 741.0 L 640.2 749.3 L 633.3 761.3 L 629.7 765.8 L 625.9 769.9 L 617.0 778.5 L 612.4 782.3 L 608.1 786.5 L 604.7 789.3 L 600.9 792.7 L 594.9 795.8 L 580.8 801.0 L 575.1 802.8 L 570.2 804.5 L 565.6 806.5 L 563.2 808.0 L 561.2 810.0 L 555.3 810.0 L 560.9 804.1 L 568.8 796.1 L 578.6 792.1 L 584.8 786.4 L 591.8 778.8 L 595.4 770.9 L 600.7 760.7 L 605.1 755.4 L 609.1 752.7 L 619.7 743.9 L 620.6 741.7 L 620.1 739.5 L 619.3 737.7 L 617.9 732.8 L 617.5 727.1 L 617.5 721.3 L 616.6 716.0 L 610.9 709.4 L 602.4 705.0 L 584.8 702.7 L 574.6 697.9 L 568.4 694.3 L 562.6 693.0 L 554.2 690.8 L 547.1 687.3 L 542.7 682.8 L 535.2 674.0 L 531.2 668.7 L 530.8 668.2 L 526.4 665.1 L 522.8 658.1 L 521.9 652.3 L 521.5 650.8 L 520.6 647.9 L 511.8 634.6 L 505.6 628.9 L 498.0 624.0 L 494.1 619.1 L 493.6 609.8 L 492.3 598.3 L 487.9 585.9 L 479.5 571.3 L 470.2 559.4 L 462.6 547.9 L 450.7 532.9 L 438.3 524.4 L 424.2 515.2 L 403.4 505.0 L 391.4 501.9 L 382.1 503.7 L 374.2 506.3 L 365.8 507.2 L 362.7 503.2 L 361.8 497.9 L 361.8 488.6 L 359.6 480.2 L 353.4 476.2 L 347.6 474.9 L 337.9 475.3 L 329.9 474.5 L 310.5 471.8 L 299.3 470.6 L 298.2 473.1 L 287.1 472.4 L 269.3 472.4 L 256.8 473.1 L 245.5 473.1 L 233.7 471.6 L 223.5 470.5 L 223.0 470.3 L 221.0 472.8 L 216.1 472.6 L 206.4 467.5 L 192.4 465.6 L 175.0 464.4 L 168.5 462.2 L 161.0 457.7 L 167.1 458.3 L 172.0 458.6 L 180.0 457.9 L 189.3 457.8 L 210.4 458.2 L 215.7 458.2 L 227.3 457.9 L 232.5 457.2 L 234.0 457.8 z M 223.5 470.5 L 233.7 471.6 L 245.5 473.1 L 256.8 473.1 L 269.3 472.4 L 287.1 472.4 L 298.2 473.1 L 299.3 470.6 L 310.5 471.8 L 329.9 474.5 L 337.9 475.3 L 347.6 474.9 L 353.4 476.2 L 359.6 480.2 L 361.8 488.6 L 361.8 497.9 L 362.7 503.2 L 365.8 507.2 L 374.2 506.3 L 382.1 503.7 L 391.4 501.9 L 403.4 505.0 L 424.2 515.2 L 438.3 524.4 L 450.7 532.9 L 462.6 547.9 L 470.2 559.4 L 479.5 571.3 L 487.9 585.9 L 492.3 598.3 L 493.6 609.8 L 494.1 619.1 L 498.0 624.0 L 505.6 628.9 L 511.8 634.6 L 520.6 647.9 L 521.5 650.8 L 521.9 652.3 L 522.8 658.1 L 526.4 665.1 L 530.8 668.2 L 531.2 668.7 L 535.2 674.0 L 542.7 682.8 L 547.1 687.3 L 554.2 690.8 L 562.6 693.0 L 568.4 694.3 L 574.6 697.9 L 584.8 702.7 L 602.4 705.0 L 610.9 709.4 L 616.6 716.0 L 617.5 721.3 L 617.5 727.1 L 617.9 732.8 L 619.3 737.7 L 620.1 739.5 L 620.6 741.7 L 619.7 743.9 L 609.1 752.7 L 605.1 755.4 L 600.7 760.7 L 595.4 770.9 L 591.8 778.8 L 584.8 786.4 L 578.6 792.1 L 568.8 796.1 L 560.9 804.1 L 555.3 810.0 L 488.3 810.0 L 467.5 808.9 L 457.2 810.0 L 332.1 810.0 L 327.7 808.0 L 323.7 804.1 L 320.2 797.9 L 319.3 794.3 L 315.8 790.8 L 308.3 789.9 L 301.2 788.6 L 285.5 789.8 L 281.5 793.6 L 279.7 792.6 L 269.2 792.3 L 258.0 793.7 L 242.5 799.1 L 229.5 802.0 L 226.1 805.2 L 218.8 807.0 L 208.5 800.6 L 195.5 795.9 L 189.8 791.9 L 189.0 789.4 L 190.8 786.1 L 194.8 782.1 L 198.8 778.5 L 202.0 773.8 L 202.0 769.9 L 195.5 759.4 L 191.6 747.1 L 189.8 734.5 L 191.9 726.5 L 190.5 715.7 L 181.8 702.3 L 169.9 686.8 L 160.5 675.2 L 150.4 663.3 L 139.5 653.6 L 136.4 651.7 L 136.4 651.7 L 126.5 646.0 L 115.0 642.4 L 103.1 636.9 L 87.9 634.0 L 73.8 632.2 L 60.1 629.3 L 47.8 626.5 L 24.7 620.7 L 11.3 617.0 L 10.0 617.4 L 10.0 606.3 L 11.0 606.4 L 19.6 606.4 L 30.7 609.7 L 38.9 612.5 L 40.7 613.4 L 44.5 613.0 L 49.8 612.3 L 64.0 610.2 L 81.8 615.0 L 95.4 618.2 L 110.1 620.7 L 129.7 626.0 L 146.5 635.0 L 156.8 642.8 L 166.6 651.0 L 167.7 651.7 L 176.4 657.1 L 185.4 660.4 L 195.7 664.5 L 212.0 669.0 L 223.5 671.5 L 232.1 673.5 L 237.4 676.8 L 241.9 682.5 L 243.6 689.1 L 241.9 694.0 L 241.5 698.9 L 245.2 702.6 L 251.3 707.5 L 250.9 716.5 L 246.8 725.9 L 244.0 732.9 L 242.7 739.0 L 245.6 745.2 L 252.2 751.7 L 262.0 755.4 L 273.9 758.7 L 289.4 762.0 L 300.1 762.0 L 314.8 763.6 L 334.9 762.8 L 351.6 766.1 L 361.9 771.8 L 372.9 779.1 L 380.3 781.6 L 387.7 783.2 L 393.4 786.9 L 400.0 793.5 L 405.7 798.0 L 413.5 801.3 L 421.2 804.1 L 433.1 805.8 L 442.1 802.9 L 449.1 799.6 L 461.4 795.1 L 476.5 792.2 L 488.0 789.8 L 501.9 784.9 L 512.9 782.8 L 524.8 780.0 L 535.1 776.7 L 542.8 771.0 L 551.4 762.0 L 555.1 756.6 L 557.6 751.3 L 561.3 747.2 L 564.1 743.5 L 565.3 738.6 L 563.7 733.7 L 558.0 730.8 L 549.4 728.0 L 544.1 726.3 L 537.9 722.7 L 533.0 718.6 L 531.8 715.3 L 529.7 709.1 L 525.6 705.5 L 519.5 703.0 L 510.9 701.8 L 505.6 698.9 L 497.4 691.9 L 494.9 685.0 L 491.7 671.9 L 491.7 664.1 L 489.2 655.9 L 485.1 651.8 L 484.1 651.0 L 479.8 647.3 L 476.9 642.8 L 474.9 636.7 L 473.2 626.8 L 472.8 616.2 L 471.6 608.0 L 469.1 604.3 L 464.6 598.6 L 460.5 590.8 L 460.1 583.5 L 457.3 573.6 L 452.8 563.4 L 449.1 555.6 L 445.4 549.5 L 429.4 536.8 L 418.8 530.6 L 404.0 523.3 L 395.9 520.4 L 383.6 515.5 L 375.8 513.4 L 366.4 513.0 L 358.6 514.3 L 354.1 513.0 L 350.0 508.5 L 348.0 502.8 L 343.9 496.3 L 332.8 488.9 L 321.8 485.6 L 307.0 482.3 L 297.2 481.1 L 291.9 481.5 L 293.3 479.0 L 290.6 479.0 L 269.0 479.0 L 256.4 479.0 L 245.0 479.0 L 237.4 479.0 L 216.9 478.0 L 221.0 472.8 L 223.0 470.3 L 223.5 470.5 z M 13.1 667.0 L 18.9 669.0 L 25.0 670.7 L 31.1 671.6 L 35.5 673.0 L 39.5 675.9 L 40.9 677.0 L 41.5 677.7 L 60.1 674.3 L 62.9 673.8 L 63.3 674.6 L 63.9 677.6 L 64.9 680.8 L 66.5 684.4 L 67.5 687.0 L 68.3 689.9 L 68.7 691.6 L 67.1 693.5 L 65.7 695.6 L 68.4 697.8 L 69.4 699.5 L 70.1 702.8 L 72.0 706.6 L 72.4 713.2 L 66.1 720.5 L 67.3 725.3 L 67.1 730.5 L 65.9 734.4 L 64.6 737.7 L 63.6 742.6 L 64.3 747.8 L 65.2 750.6 L 66.1 756.8 L 66.2 760.2 L 68.5 763.8 L 68.9 767.3 L 71.6 774.7 L 74.0 780.8 L 74.5 785.6 L 70.8 801.4 L 69.7 807.6 L 68.7 810.0 L 10.0 810.0 L 10.0 666.1 L 13.1 667.0 z M 18.4 467.2 L 27.0 469.2 L 34.8 470.0 L 42.1 471.3 L 45.8 472.1 L 48.3 472.8 L 46.6 474.8 L 55.2 477.2 L 67.4 479.8 L 76.1 481.5 L 87.9 482.8 L 94.5 483.0 L 100.6 483.5 L 122.7 486.3 L 124.3 485.1 L 139.8 489.1 L 154.0 491.8 L 169.9 494.4 L 194.2 493.6 L 202.4 494.0 L 199.3 497.4 L 203.1 497.8 L 211.9 499.1 L 220.4 499.8 L 234.0 502.9 L 242.8 506.9 L 254.3 509.6 L 263.7 512.6 L 267.7 508.4 L 271.6 510.4 L 280.5 515.2 L 290.7 520.5 L 303.5 526.3 L 309.7 532.9 L 316.8 537.4 L 326.9 543.1 L 336.7 546.2 L 352.6 548.9 L 367.6 550.2 L 386.7 553.7 L 400.8 559.5 L 410.1 567.0 L 415.4 572.8 L 422.5 582.5 L 427.8 597.5 L 426.9 605.9 L 424.7 608.6 L 421.6 611.2 L 417.6 616.1 L 415.0 624.5 L 411.0 631.6 L 407.0 637.3 L 400.8 642.6 L 392.0 647.5 L 382.9 651.2 L 382.2 651.5 L 374.7 653.7 L 358.4 657.7 L 338.0 661.2 L 322.1 662.1 L 312.8 660.8 L 308.8 658.6 L 303.5 654.6 L 294.7 651.9 L 293.6 651.4 L 284.5 647.1 L 268.1 643.1 L 254.8 639.1 L 240.2 634.2 L 227.0 628.5 L 213.7 624.5 L 201.3 620.1 L 184.5 614.8 L 168.1 613.0 L 156.7 612.9 L 151.6 612.0 L 125.5 606.7 L 123.1 606.3 L 121.0 606.1 L 115.7 604.7 L 100.4 605.9 L 83.0 602.4 L 75.8 600.3 L 68.9 598.7 L 61.4 597.3 L 51.1 594.7 L 44.3 592.2 L 30.5 587.9 L 17.6 585.6 L 10.0 584.4 L 10.0 576.0 L 10.7 576.2 L 16.5 577.5 L 24.7 579.0 L 31.5 580.1 L 42.3 581.6 L 46.8 581.7 L 62.8 582.9 L 77.0 584.3 L 89.8 587.3 L 103.1 589.6 L 116.4 593.1 L 123.9 594.9 L 139.8 596.2 L 151.3 597.5 L 162.4 601.5 L 174.8 602.8 L 187.6 605.5 L 201.7 609.0 L 214.1 613.9 L 228.7 617.3 L 239.5 620.3 L 254.1 625.1 L 271.1 629.8 L 287.8 634.3 L 308.1 642.1 L 317.6 646.2 L 330.9 647.5 L 347.2 645.8 L 358.4 643.1 L 371.0 640.7 L 388.6 633.2 L 393.7 630.2 L 399.5 620.0 L 401.9 613.5 L 402.2 605.4 L 400.2 596.2 L 393.0 587.4 L 386.2 581.3 L 377.1 574.8 L 373.7 571.4 L 366.5 566.0 L 360.1 563.6 L 345.5 560.6 L 331.9 557.2 L 317.0 551.4 L 307.8 546.0 L 300.0 539.2 L 291.1 533.4 L 281.3 529.7 L 261.6 521.8 L 257.0 519.5 L 254.9 521.6 L 244.7 519.6 L 236.3 517.4 L 229.3 514.8 L 207.7 510.1 L 198.6 508.6 L 192.7 508.6 L 184.7 506.8 L 170.8 506.8 L 154.3 504.2 L 132.0 500.9 L 115.2 499.8 L 98.3 496.5 L 75.0 493.5 L 61.0 491.7 L 51.1 489.3 L 39.3 485.9 L 42.4 480.4 L 40.2 479.8 L 32.7 479.0 L 28.7 478.8 L 23.8 478.0 L 18.7 477.6 L 10.0 477.3 L 10.0 465.5 L 18.4 467.2 z M 489.8 115.1 L 484.7 123.2 L 478.8 130.0 L 471.5 137.0 L 466.2 141.1 L 457.4 146.5 L 448.5 150.1 L 439.3 152.9 L 430.3 155.2 L 422.2 159.4 L 414.3 161.6 L 402.2 162.9 L 380.2 163.4 L 370.3 164.4 L 360.0 167.1 L 345.5 171.7 L 338.2 172.6 L 320.9 173.8 L 311.4 175.6 L 302.2 178.7 L 293.2 182.0 L 285.3 184.6 L 276.3 185.1 L 257.0 181.8 L 244.6 176.4 L 240.2 174.2 L 236.2 171.7 L 232.1 169.4 L 228.7 168.1 L 226.1 166.7 L 216.9 163.7 L 206.8 161.2 L 193.3 155.5 L 186.2 150.7 L 179.8 146.2 L 172.2 139.1 L 166.8 133.1 L 162.9 127.0 L 160.1 122.2 L 166.6 124.7 L 175.6 128.8 L 194.8 135.1 L 247.0 148.4 L 246.5 135.7 L 274.3 137.1 L 301.0 140.5 L 326.2 141.0 L 357.2 136.0 L 379.5 131.4 L 391.1 128.2 L 398.3 132.9 L 407.5 137.1 L 418.2 138.3 L 431.7 136.9 L 442.2 132.2 L 450.2 127.7 L 463.7 122.7 L 471.4 119.4 L 475.9 115.9 L 481.1 112.3 L 489.0 106.4 L 500.3 95.9 L 489.8 115.1 z M 489.6 23.6 L 491.7 24.9 L 493.1 26.2 L 493.9 28.1 L 494.3 29.8 L 494.5 31.1 L 494.5 32.1 L 495.3 36.8 L 491.0 42.6 L 487.9 47.1 L 486.1 51.6 L 483.9 59.1 L 483.3 62.7 L 483.1 70.1 L 483.3 71.3 L 483.7 72.2 L 482.3 74.2 L 479.8 77.3 L 476.5 80.5 L 472.0 82.9 L 466.7 84.5 L 462.3 86.0 L 456.7 87.4 L 451.5 88.1 L 447.9 88.4 L 444.9 88.0 L 444.0 86.5 L 443.7 83.5 L 445.1 80.1 L 449.7 75.9 L 463.0 67.9 L 466.5 65.1 L 470.0 61.5 L 471.5 59.1 L 472.2 55.6 L 472.5 52.1 L 472.5 48.8 L 472.3 46.8 L 472.2 42.6 L 472.6 35.9 L 473.6 32.2 L 474.8 29.4 L 475.9 27.7 L 479.3 25.1 L 482.1 23.9 L 484.4 23.5 L 487.1 23.2 L 489.6 23.6 z M 320.3 18.7 L 321.5 19.4 L 323.1 20.5 L 325.7 24.3 L 331.8 34.2 L 335.1 37.9 L 339.0 39.9 L 343.2 41.7 L 346.5 45.0 L 347.6 47.1 L 348.5 51.4 L 348.1 53.4 L 345.8 55.8 L 343.3 56.7 L 341.3 56.7 L 339.2 56.0 L 337.7 56.0 L 336.6 57.6 L 336.5 60.9 L 336.6 63.8 L 336.3 65.9 L 334.7 68.0 L 332.3 68.9 L 328.2 69.0 L 324.0 67.6 L 320.9 65.1 L 318.6 61.9 L 318.4 59.9 L 320.2 57.5 L 326.1 55.4 L 327.0 54.7 L 327.2 52.8 L 324.9 49.3 L 322.0 47.5 L 317.5 44.5 L 313.8 41.5 L 311.3 38.5 L 309.4 34.0 L 309.1 30.6 L 309.7 28.3 L 313.6 21.6 L 314.8 20.3 L 317.0 18.7 L 319.2 18.3 L 320.3 18.7 z"
 style="fill:#9c0000; fill-opacity:0.1; fill-rule:evenodd; stroke:#ffa07a; stroke-opacity:1.0; stroke-width:0.8;"/>

<g stroke="black" stroke-width="3" fill="black">
  <circle cx="10" cy="10" r="0.1"/>
  <circle cx="795" cy="10" r="0.1"/>
  <circle cx="795" cy="810" r="0.1"/>
  <circle cx="10" cy="810" r="0.1"/>
  <circle cx="10" cy="10" r="0.1"/>
</g>
</g>
</g>
</svg>
